<svg width="56" height="56" viewBox="0 0 56 56" fill="none" xmlns="http://www.w3.org/2000/svg">
<path d="M36.4751 34.9169C36.4751 36.1936 36.8537 37.4416 37.563 38.5032C38.2723 39.5647 39.2805 40.392 40.46 40.8806C41.6395 41.3691 42.9374 41.4969 44.1896 41.2478C45.4417 40.9987 46.5919 40.3839 47.4946 39.4811C48.3973 38.5783 49.0121 37.4281 49.2611 36.1759C49.5101 34.9238 49.3822 33.6259 48.8936 32.4464C48.405 31.2669 47.5776 30.2588 46.516 29.5496C45.4544 28.8403 44.2063 28.4618 42.9297 28.4619C41.2183 28.4639 39.5777 29.1447 38.3677 30.3548C37.1576 31.5649 36.477 33.2056 36.4751 34.9169ZM48.0726 34.9169C48.0726 35.934 47.771 36.9282 47.2059 37.7739C46.6409 38.6195 45.8378 39.2787 44.8981 39.6679C43.9585 40.0571 42.9245 40.159 41.927 39.9606C40.9295 39.7622 40.0132 39.2725 39.294 38.5534C38.5747 37.8342 38.0849 36.9179 37.8865 35.9204C37.688 34.9229 37.7898 33.8889 38.1789 32.9493C38.5681 32.0096 39.2271 31.2064 40.0728 30.6413C40.9184 30.0762 41.9126 29.7745 42.9297 29.7744C44.2931 29.7758 45.6004 30.3181 46.5645 31.2822C47.5287 32.2462 48.071 33.5534 48.0726 34.9169Z" fill="black"/>
<path d="M40.4426 34.2833C40.3816 34.2223 40.3093 34.174 40.2296 34.141C40.15 34.1081 40.0647 34.0911 39.9785 34.0911C39.8923 34.0911 39.807 34.1081 39.7274 34.1411C39.6477 34.174 39.5754 34.2224 39.5145 34.2833C39.4535 34.3443 39.4052 34.4166 39.3722 34.4962C39.3392 34.5759 39.3223 34.6612 39.3223 34.7474C39.3223 34.8336 39.3393 34.9189 39.3722 34.9985C39.4052 35.0781 39.4536 35.1505 39.5145 35.2114L41.7003 37.397C41.8214 37.5182 41.9852 37.5872 42.1566 37.5893C42.328 37.5913 42.4934 37.5262 42.6175 37.4079L46.4706 33.7275C46.5965 33.6073 46.6695 33.442 46.6734 33.268C46.6774 33.094 46.6121 32.9255 46.4919 32.7997C46.3717 32.6738 46.2064 32.6008 46.0324 32.5969C45.8584 32.5929 45.6899 32.6582 45.564 32.7784L42.1747 36.0159L40.4426 34.2833Z" fill="black"/>
<path d="M9.4134 23.0322H9.39546C8.75053 23.0345 8.13292 23.293 7.67852 23.7506C7.22411 24.2083 6.97012 24.8277 6.97243 25.4727C6.97473 26.1176 7.23315 26.7352 7.69081 27.1896C8.14848 27.644 8.76792 27.898 9.41286 27.8957H9.43134C10.0763 27.8934 10.6939 27.6349 11.1483 27.1772C11.6026 26.7196 11.8566 26.1001 11.8543 25.4552C11.8519 24.8102 11.5935 24.1926 11.1358 23.7383C10.6781 23.2839 10.0587 23.0299 9.41373 23.0322H9.4134ZM10.2104 26.2501C10.0812 26.3812 9.92168 26.4784 9.74593 26.5332C9.57017 26.5879 9.38363 26.5985 9.20282 26.5639C9.02201 26.5293 8.85251 26.4507 8.70935 26.335C8.56619 26.2193 8.45378 26.07 8.38208 25.9005C8.31038 25.7309 8.28161 25.5463 8.2983 25.363C8.315 25.1797 8.37665 25.0033 8.4778 24.8495C8.57894 24.6957 8.71646 24.5692 8.87817 24.4812C9.03988 24.3932 9.22079 24.3465 9.40487 24.3452H9.41318C9.63381 24.3453 9.8495 24.4105 10.0331 24.5328C10.2168 24.6551 10.3602 24.8289 10.4454 25.0324C10.5306 25.236 10.5537 25.4601 10.5119 25.6768C10.4701 25.8934 10.3652 26.0928 10.2104 26.2501Z" fill="black"/>
<path d="M2.84378 19.1854H2.84946L4.90254 19.1676C4.00643 19.9015 3.43965 21.0817 3.4496 22.4324C3.44984 22.4599 3.45177 22.4874 3.4554 22.5147L4.51459 30.4141C4.52986 30.9599 4.73297 31.4838 5.08965 31.8972C5.44633 32.3106 5.93473 32.5883 6.4724 32.6834L6.49089 35.1881C6.49383 35.5873 6.65446 35.9692 6.93777 36.2505C7.22107 36.5318 7.60408 36.6897 8.00332 36.6898H8.01426L10.6153 36.6707C11.0165 36.6677 11.4001 36.5055 11.6817 36.2197C11.9633 35.9339 12.1198 35.548 12.1169 35.1468L12.0989 32.6826L32.0478 32.5356V44.1535C32.0488 45.0107 32.3899 45.8325 32.996 46.4387C33.6022 47.0449 34.424 47.3859 35.2812 47.3869H50.5791C51.4363 47.3859 52.2581 47.0449 52.8643 46.4387C53.4704 45.8325 53.8115 45.0107 53.8125 44.1535V25.6809C53.8115 24.8237 53.4704 24.0019 52.8643 23.3957C52.2581 22.7895 51.4363 22.4485 50.5791 22.4475H47.6859C47.5495 21.8695 47.2222 21.3544 46.7569 20.9855C46.2915 20.6167 45.7153 20.4156 45.1215 20.4147H42.762C42.5014 19.8208 42.098 19.3005 41.5876 18.9003L43.6891 18.8841C43.778 18.8835 43.8657 18.8648 43.9471 18.8292C44.0285 18.7936 44.1019 18.7418 44.1627 18.6771C44.2235 18.6123 44.2705 18.5358 44.3009 18.4523C44.3313 18.3689 44.3444 18.2801 44.3395 18.1914C44.2975 17.6655 44.1905 17.1469 44.0211 16.6473C43.6447 15.5449 42.482 14.8426 41.0552 14.8498C40.2107 14.856 38.6992 14.8618 37.99 14.8643L36.5947 12.3378C35.6103 10.6026 34.1787 8.61426 31.822 8.61426H31.7912L14.7378 8.73938C12.8034 8.75371 11.0975 10.1025 9.93314 12.5381L8.51553 15.0941C7.80634 15.0979 6.27334 15.1063 5.42273 15.1126C3.99757 15.1235 2.84389 15.8454 2.4836 16.9536C2.32161 17.4556 2.22242 17.9758 2.18829 18.5022C2.18468 18.5906 2.19898 18.6788 2.23034 18.7616C2.2617 18.8443 2.30946 18.9199 2.37077 18.9837C2.43207 19.0475 2.50564 19.0982 2.58706 19.1329C2.66848 19.1675 2.75606 19.1853 2.84454 19.1852L2.84378 19.1854ZM10.8044 35.1569C10.8049 35.1833 10.8 35.2095 10.7901 35.2339C10.7802 35.2584 10.7655 35.2805 10.7468 35.2991C10.7284 35.3179 10.7064 35.3329 10.6822 35.3432C10.658 35.3535 10.632 35.3588 10.6057 35.359L8.00474 35.3781C7.97832 35.3791 7.95198 35.3745 7.92747 35.3645C7.90296 35.3546 7.88084 35.3396 7.86256 35.3205C7.84367 35.3021 7.82865 35.2802 7.81839 35.2559C7.80813 35.2317 7.80284 35.2056 7.80284 35.1793L7.78468 32.7144L10.7864 32.6925L10.8044 35.1569ZM47.6578 23.7601H50.5791C51.0883 23.7607 51.5766 23.9632 51.9367 24.3233C52.2968 24.6834 52.4994 25.1716 52.5 25.6809V44.1535C52.4994 44.6628 52.2969 45.151 51.9368 45.5112C51.5766 45.8713 51.0884 46.0739 50.5791 46.0744H35.2812C34.7719 46.0739 34.2837 45.8713 33.9235 45.5112C33.5634 45.151 33.3609 44.6628 33.3603 44.1535V25.6809C33.3609 25.1716 33.5634 24.6834 33.9235 24.3232C34.2837 23.9631 34.7719 23.7605 35.2812 23.76H38.2025C38.3582 24.313 38.6901 24.8002 39.1479 25.1474C39.6057 25.4946 40.1643 25.6829 40.7388 25.6837H45.1215C45.696 25.6829 46.2546 25.4946 46.7124 25.1473C47.1702 24.8001 47.5021 24.313 47.6578 23.76V23.7601ZM46.4437 23.0491C46.4433 23.3996 46.3039 23.7357 46.0561 23.9835C45.8082 24.2314 45.4722 24.3708 45.1217 24.3712H40.739C40.5644 24.3727 40.3912 24.3397 40.2295 24.274C40.0677 24.2083 39.9205 24.1112 39.7965 23.9882C39.6724 23.8653 39.574 23.7191 39.5068 23.5579C39.4396 23.3967 39.405 23.2238 39.405 23.0492C39.405 22.8746 39.4396 22.7017 39.5068 22.5405C39.574 22.3793 39.6724 22.2331 39.7965 22.1101C39.9205 21.9872 40.0677 21.8901 40.2295 21.8244C40.3912 21.7587 40.5644 21.7256 40.739 21.7272H45.1217C45.4721 21.7277 45.8081 21.8671 46.0559 22.1149C46.3037 22.3627 46.4431 22.6987 46.4435 23.0491H46.4437ZM40.739 20.4147C40.1452 20.4156 39.569 20.6167 39.1037 20.9855C38.6383 21.3544 38.311 21.8695 38.1746 22.4475H35.2812C34.424 22.4485 33.6022 22.7895 32.996 23.3957C32.3899 24.0019 32.0488 24.8237 32.0478 25.6809V31.2234L6.89065 31.4088H6.88278C6.60395 31.4084 6.33653 31.298 6.13866 31.1015C5.94079 30.9051 5.82847 30.6385 5.8261 30.3597C5.82587 30.3321 5.82394 30.3046 5.82031 30.2773L4.76167 22.3829C4.76757 20.7652 5.86395 19.7689 6.97028 19.6932C7.00447 19.699 7.03907 19.7021 7.07375 19.7024H7.07856L39.3969 19.4643C39.4017 19.4643 39.4065 19.465 39.4113 19.465H39.4332C39.7906 19.4672 40.1423 19.5545 40.4592 19.7196C40.7761 19.8848 41.0491 20.1231 41.2555 20.4148L40.739 20.4147ZM28.3209 18.2331C28.4423 17.5701 28.7908 16.97 29.3067 16.5362C29.8226 16.1023 30.4735 15.8618 31.1475 15.8559H31.1694C31.84 15.8561 32.4897 16.089 33.0077 16.515C33.5257 16.9409 33.8798 17.5334 34.0095 18.1914L28.3209 18.2331ZM41.0649 16.1627H41.0859C41.9137 16.1627 42.5927 16.5264 42.779 17.0719C42.8354 17.2379 42.8828 17.4068 42.9212 17.5779L39.5024 17.6043L38.7131 16.1746C39.4707 16.1714 40.4461 16.1672 41.0649 16.1627ZM11.0907 13.1573C11.0973 13.1453 11.1036 13.1332 11.1094 13.1209C11.6519 11.9808 12.846 10.066 14.7474 10.052L31.8008 9.92632H31.8221C33.1504 9.92632 34.2376 10.8429 35.4493 12.9784L38.3099 18.1599L35.3372 18.1817C35.1998 17.174 34.702 16.2502 33.9358 15.5813C33.1697 14.9124 32.1871 14.5437 31.17 14.5436H31.1383C30.1162 14.5524 29.1321 14.9326 28.3694 15.6132C27.6068 16.2938 27.1176 17.2285 26.993 18.2431L8.19298 18.3817L11.0907 13.1573ZM3.73179 17.3596C3.9116 16.8068 4.59498 16.4313 5.43235 16.4252C6.04912 16.4206 7.02518 16.4149 7.78534 16.4107L6.99434 17.8369L3.59737 17.8663C3.6332 17.6951 3.67807 17.526 3.73179 17.3596Z" fill="black"/>
<path d="M28.3729 28.5752H28.368L18.3106 28.6494C18.1366 28.65 17.9699 28.7197 17.8473 28.8432C17.7247 28.9667 17.6561 29.1339 17.6567 29.308C17.6574 29.482 17.7271 29.6487 17.8506 29.7713C17.9741 29.8939 18.1413 29.9625 18.3153 29.9618H18.3203L28.3776 29.8877C28.5517 29.8871 28.7184 29.8173 28.841 29.6938C28.9636 29.5703 29.0322 29.4031 29.0315 29.2291C29.0309 29.055 28.9612 28.8884 28.8377 28.7657C28.7142 28.6431 28.547 28.5746 28.3729 28.5752Z" fill="black"/>
<path d="M18.7796 26.1801H18.7845C18.8707 26.1795 18.956 26.1619 19.0353 26.1283C19.1147 26.0947 19.1867 26.0458 19.2472 25.9844C19.3077 25.923 19.3555 25.8503 19.3879 25.7705C19.4203 25.6906 19.4366 25.6051 19.436 25.5189L19.424 23.8829C19.4227 23.7097 19.353 23.544 19.23 23.422C19.1071 23.2999 18.9409 23.2314 18.7677 23.2314H18.7628C18.6766 23.2321 18.5914 23.2497 18.512 23.2832C18.4326 23.3168 18.3606 23.3657 18.3001 23.4271C18.2397 23.4884 18.1918 23.5611 18.1595 23.641C18.1271 23.7209 18.1107 23.8063 18.1113 23.8925L18.1234 25.5286C18.1246 25.7019 18.1943 25.8675 18.3173 25.9896C18.4402 26.1116 18.6064 26.1801 18.7796 26.1801Z" fill="black"/>
<path d="M15.7374 23.2529H15.7325C15.6463 23.2536 15.5611 23.2712 15.4817 23.3047C15.4024 23.3383 15.3304 23.3872 15.2699 23.4485C15.2094 23.5099 15.1616 23.5826 15.1292 23.6625C15.0968 23.7424 15.0804 23.8278 15.0811 23.914L15.0931 25.5501C15.0944 25.7233 15.1641 25.889 15.287 26.0111C15.4099 26.1331 15.5761 26.2016 15.7494 26.2016H15.7543C15.8405 26.2009 15.9257 26.1833 16.0051 26.1498C16.0844 26.1162 16.1564 26.0673 16.2169 26.006C16.2774 25.9446 16.3252 25.8719 16.3576 25.792C16.39 25.7122 16.4064 25.6267 16.4057 25.5405L16.3937 23.9044C16.3924 23.7312 16.3227 23.5655 16.1998 23.4434C16.0768 23.3214 15.9107 23.2529 15.7374 23.2529Z" fill="black"/>
<path d="M30.8846 23.1416C30.7984 23.1422 30.7132 23.1598 30.6338 23.1934C30.5545 23.227 30.4825 23.2758 30.422 23.3372C30.3615 23.3986 30.3137 23.4713 30.2813 23.5512C30.2489 23.631 30.2325 23.7165 30.2332 23.8027L30.2452 25.4388C30.2465 25.612 30.3162 25.7777 30.4391 25.8998C30.562 26.0218 30.7282 26.0903 30.9015 26.0903H30.9064C30.9926 26.0896 31.0778 26.072 31.1572 26.0385C31.2366 26.0049 31.3086 25.956 31.369 25.8946C31.4295 25.8332 31.4773 25.7605 31.5097 25.6806C31.5421 25.6007 31.5585 25.5153 31.5578 25.4291L31.5458 23.7929C31.5439 23.6191 31.4733 23.453 31.3495 23.331C31.2256 23.2089 31.0585 23.1409 30.8846 23.1416Z" fill="black"/>
<path d="M21.81 26.1577H21.815C21.9011 26.1571 21.9864 26.1395 22.0658 26.1059C22.1451 26.0723 22.2171 26.0234 22.2776 25.9621C22.3381 25.9007 22.3859 25.8279 22.4183 25.7481C22.4507 25.6682 22.467 25.5827 22.4664 25.4965L22.4544 23.8604C22.4531 23.6863 22.3827 23.5199 22.2587 23.3978C22.1347 23.2756 21.9673 23.2077 21.7932 23.209C21.6192 23.2103 21.4528 23.2807 21.3306 23.4047C21.2085 23.5286 21.1406 23.6961 21.1419 23.8701L21.1539 25.5063C21.1552 25.6795 21.2249 25.8451 21.3478 25.9672C21.4707 26.0892 21.6368 26.1577 21.81 26.1577Z" fill="black"/>
<path d="M24.8404 26.1352H24.8453C24.9315 26.1345 25.0167 26.1169 25.0961 26.0834C25.1755 26.0498 25.2475 26.0009 25.308 25.9396C25.3684 25.8782 25.4163 25.8055 25.4487 25.7256C25.481 25.6457 25.4974 25.5603 25.4968 25.4741L25.4844 23.838C25.4831 23.6647 25.4134 23.4991 25.2905 23.377C25.1676 23.255 25.0014 23.1865 24.8281 23.1865H24.8232C24.6492 23.1878 24.4828 23.2582 24.3607 23.3822C24.2385 23.5061 24.1706 23.6736 24.1719 23.8476L24.1838 25.4837C24.1851 25.657 24.2548 25.8227 24.3778 25.9448C24.5008 26.0668 24.6671 26.1353 24.8404 26.1352Z" fill="black"/>
<path d="M27.8707 26.1127H27.8756C27.9618 26.1121 28.047 26.0945 28.1264 26.0609C28.2058 26.0273 28.2778 25.9785 28.3383 25.9171C28.3988 25.8557 28.4466 25.7829 28.479 25.7031C28.5114 25.6232 28.5277 25.5377 28.5271 25.4515L28.515 23.8154C28.5137 23.6422 28.444 23.4765 28.3211 23.3545C28.1982 23.2325 28.032 23.1641 27.8588 23.1641H27.8539C27.7677 23.1647 27.6825 23.1823 27.6031 23.2159C27.5237 23.2494 27.4517 23.2983 27.3912 23.3597C27.3307 23.4211 27.2829 23.4938 27.2505 23.5736C27.2181 23.6535 27.2018 23.7389 27.2024 23.8251L27.2144 25.4613C27.2157 25.6345 27.2854 25.8002 27.4083 25.9222C27.5313 26.0442 27.6975 26.1127 27.8707 26.1127Z" fill="black"/>
</svg>
