<svg width="52" height="52" viewBox="0 0 52 52" fill="none" xmlns="http://www.w3.org/2000/svg">
<path d="M43.4688 3.4531H29.8532C29.5074 2.72382 28.9618 2.10763 28.2797 1.67615C27.5976 1.24467 26.8071 1.01562 26 1.01562C25.1929 1.01563 24.4024 1.24467 23.7203 1.67615C23.0382 2.10763 22.4926 2.72382 22.1468 3.4531H8.53125C7.83115 3.45388 7.15995 3.73234 6.66491 4.22738C6.16986 4.72243 5.8914 5.39363 5.89062 6.09373V48.3437C5.8914 49.0438 6.16986 49.715 6.66491 50.2101C7.15995 50.7051 7.83115 50.9836 8.53125 50.9844H43.4688C44.1688 50.9836 44.84 50.7051 45.3351 50.2101C45.8301 49.715 46.1086 49.0438 46.1094 48.3437V6.09373C46.1086 5.39363 45.8301 4.72243 45.3351 4.22738C44.84 3.73234 44.1688 3.45388 43.4688 3.4531ZM26 2.23435C26.8078 2.23527 27.5823 2.55657 28.1535 3.12777C28.7247 3.69897 29.046 4.47343 29.0469 5.28123V7.10935C29.0469 7.27097 29.1111 7.42597 29.2254 7.54025C29.3396 7.65453 29.4946 7.71873 29.6562 7.71873H35.75V11.375H16.25V7.71873H22.3438C22.5054 7.71873 22.6604 7.65453 22.7746 7.54025C22.8889 7.42597 22.9531 7.27097 22.9531 7.10935V5.28123C22.954 4.47343 23.2753 3.69897 23.8465 3.12777C24.4177 2.55657 25.1922 2.23527 26 2.23435ZM40.1797 38.3352H36.8977C36.1976 38.3359 35.5264 38.6144 35.0313 39.1094C34.5363 39.6045 34.2578 40.2757 34.257 40.9758V44.1714H12.2265C12.1188 44.1714 12.0154 44.1286 11.9392 44.0525C11.8631 43.9763 11.8203 43.8729 11.8203 43.7652V10.6723C11.8203 10.5645 11.8631 10.4612 11.9392 10.385C12.0154 10.3088 12.1188 10.266 12.2265 10.266H15.0312V11.9844C15.0312 12.146 15.0955 12.301 15.2097 12.4152C15.324 12.5295 15.479 12.5937 15.6406 12.5937H36.3594C36.521 12.5937 36.676 12.5295 36.7903 12.4152C36.9045 12.301 36.9688 12.146 36.9688 11.9844V10.266H39.7735C39.8812 10.266 39.9846 10.3088 40.0608 10.385C40.1369 10.4612 40.1797 10.5645 40.1797 10.6723V38.3352ZM39.3434 39.5539L35.4758 43.4214V40.9758C35.4762 40.5988 35.6261 40.2374 35.8927 39.9708C36.1592 39.7042 36.5207 39.5543 36.8977 39.5539H39.3434ZM44.8906 48.3437C44.8902 48.7207 44.7403 49.0821 44.4737 49.3487C44.2072 49.6153 43.8457 49.7652 43.4688 49.7656H8.53125C8.15427 49.7652 7.79284 49.6153 7.52628 49.3487C7.25971 49.0821 7.10978 48.7207 7.10938 48.3437V6.09373C7.10981 5.71675 7.25975 5.35534 7.52631 5.08878C7.79287 4.82222 8.15428 4.67228 8.53125 4.67185H21.7787C21.7493 4.87366 21.7345 5.0773 21.7344 5.28123V6.49998H15.6406C15.479 6.49998 15.324 6.56418 15.2097 6.67846C15.0955 6.79274 15.0312 6.94774 15.0312 7.10935V9.04727H12.2265C11.7957 9.04775 11.3826 9.21911 11.078 9.52375C10.7733 9.82839 10.602 10.2414 10.6015 10.6723V43.7652C10.602 44.196 10.7733 44.6091 11.078 44.9137C11.3826 45.2183 11.7957 45.3897 12.2265 45.3902H34.4733C34.5558 45.3896 34.6382 45.3834 34.7199 45.3718C34.829 45.3993 34.9436 45.3958 35.0508 45.3617C35.158 45.3276 35.2536 45.2643 35.3268 45.1788C35.4885 45.0932 35.6365 44.9838 35.7658 44.8543L40.8632 39.757C41.0334 39.5877 41.1684 39.3862 41.2603 39.1644C41.3522 38.9425 41.3991 38.7047 41.3985 38.4645V10.6723C41.398 10.2414 41.2267 9.82839 40.922 9.52375C40.6174 9.21911 40.2043 9.04775 39.7735 9.04727H36.9688V7.10935C36.9688 6.94774 36.9045 6.79274 36.7903 6.67846C36.676 6.56418 36.521 6.49998 36.3594 6.49998H30.2656V5.28123C30.2655 5.0773 30.2507 4.87366 30.2213 4.67185H43.4688C43.8457 4.67228 44.2071 4.82222 44.4737 5.08878C44.7402 5.35534 44.8902 5.71675 44.8906 6.09373V48.3437Z" fill="black"/>
<path d="M36.3592 30.1006H34.4019C34.2402 30.1006 34.0852 30.1648 33.971 30.2791C33.8567 30.3933 33.7925 30.5483 33.7925 30.71C33.7925 30.8716 33.8567 31.0266 33.971 31.1409C34.0852 31.2551 34.2402 31.3193 34.4019 31.3193H36.3592C36.5208 31.3193 36.6758 31.2551 36.7901 31.1409C36.9043 31.0266 36.9685 30.8716 36.9685 30.71C36.9685 30.5483 36.9043 30.3933 36.7901 30.2791C36.6758 30.1648 36.5208 30.1006 36.3592 30.1006Z" fill="black"/>
<path d="M24.5273 30.1006C24.3657 30.1006 24.2107 30.1648 24.0965 30.2791C23.9822 30.3933 23.918 30.5483 23.918 30.71C23.918 30.8716 23.9822 31.0266 24.0965 31.1409C24.2107 31.2551 24.3657 31.3193 24.5273 31.3193H32.0951C32.2567 31.3193 32.4117 31.2551 32.526 31.1409C32.6402 31.0266 32.7044 30.8716 32.7044 30.71C32.7044 30.5483 32.6402 30.3933 32.526 30.2791C32.4117 30.1648 32.2567 30.1006 32.0951 30.1006H24.5273Z" fill="black"/>
<path d="M22.2101 30.1006H15.6406C15.479 30.1006 15.324 30.1648 15.2097 30.2791C15.0955 30.3933 15.0312 30.5483 15.0312 30.71C15.0312 30.8716 15.0955 31.0266 15.2097 31.1409C15.324 31.2551 15.479 31.3193 15.6406 31.3193H22.2101C22.3717 31.3193 22.5267 31.2551 22.641 31.1409C22.7553 31.0266 22.8195 30.8716 22.8195 30.71C22.8195 30.5483 22.7553 30.3933 22.641 30.2791C22.5267 30.1648 22.3717 30.1006 22.2101 30.1006Z" fill="black"/>
<path d="M36.3596 34.4619H23.6567C23.4951 34.4619 23.3401 34.5261 23.2258 34.6404C23.1116 34.7547 23.0474 34.9097 23.0474 35.0713C23.0474 35.2329 23.1116 35.3879 23.2258 35.5022C23.3401 35.6165 23.4951 35.6807 23.6567 35.6807H36.3596C36.5212 35.6807 36.6762 35.6165 36.7905 35.5022C36.9047 35.3879 36.9689 35.2329 36.9689 35.0713C36.9689 34.9097 36.9047 34.7547 36.7905 34.6404C36.6762 34.5261 36.5212 34.4619 36.3596 34.4619Z" fill="black"/>
<path d="M21.3395 34.4619H18.9653C18.8037 34.4619 18.6487 34.5261 18.5344 34.6404C18.4202 34.7547 18.356 34.9097 18.356 35.0713C18.356 35.2329 18.4202 35.3879 18.5344 35.5022C18.6487 35.6165 18.8037 35.6807 18.9653 35.6807H21.3395C21.5011 35.6807 21.6561 35.6165 21.7703 35.5022C21.8846 35.3879 21.9488 35.2329 21.9488 35.0713C21.9488 34.9097 21.8846 34.7547 21.7703 34.6404C21.6561 34.5261 21.5011 34.4619 21.3395 34.4619Z" fill="black"/>
<path d="M16.5935 34.4619H15.6406C15.479 34.4619 15.324 34.5261 15.2097 34.6404C15.0955 34.7547 15.0312 34.9097 15.0312 35.0713C15.0312 35.2329 15.0955 35.3879 15.2097 35.5022C15.324 35.6165 15.479 35.6807 15.6406 35.6807H16.5935C16.7551 35.6807 16.9101 35.6165 17.0244 35.5022C17.1387 35.3879 17.2029 35.2329 17.2029 35.0713C17.2029 34.9097 17.1387 34.7547 17.0244 34.6404C16.9101 34.5261 16.7551 34.4619 16.5935 34.4619Z" fill="black"/>
<path d="M17.7135 24.3465C17.7224 24.6129 17.8087 24.871 17.9618 25.0892C18.115 25.3074 18.3283 25.4763 18.5758 25.5754V26.4517C18.5761 26.7143 18.6805 26.966 18.8661 27.1516C19.0518 27.3373 19.3035 27.4417 19.566 27.442H20.7225C20.985 27.4417 21.2367 27.3373 21.4224 27.1516C21.608 26.966 21.7124 26.7143 21.7127 26.4517V25.6737H30.2873V26.4517C30.2876 26.7143 30.392 26.966 30.5776 27.1516C30.7633 27.3373 31.015 27.4417 31.2775 27.442H32.434C32.6965 27.4417 32.9482 27.3373 33.1339 27.1516C33.3195 26.966 33.4239 26.7143 33.4242 26.4517V25.5682C33.6667 25.4668 33.875 25.298 34.0244 25.0818C34.1738 24.8656 34.2581 24.611 34.2672 24.3484L34.7296 20.8499C34.7331 20.8234 34.7349 20.7967 34.7349 20.77C34.7349 19.7529 34.0573 18.9026 33.1607 18.709L31.818 16.2356C31.3419 15.3816 30.6386 14.4014 29.4172 14.4014H22.6469C21.661 14.4014 20.7985 15.0557 20.2171 16.2444L18.8311 18.7003C17.9281 18.8873 17.2656 19.7289 17.2656 20.77C17.2656 20.7956 17.2673 20.8212 17.2705 20.8466L17.7135 24.3465ZM20.494 26.2232H19.7945V25.6737H20.494V26.2232ZM31.506 26.2232V25.6737H32.2055V26.2232H31.506ZM21.2875 16.8274C21.2936 16.8163 21.2996 16.805 21.305 16.7938C21.5175 16.3554 21.9745 15.6201 22.6468 15.6201H29.4171C29.8812 15.6201 30.2803 15.9817 30.7501 16.8229L31.7505 18.667H31.221C31.0986 18.1996 30.8247 17.786 30.4422 17.4909C30.0598 17.1957 29.5903 17.0356 29.1072 17.0356C28.624 17.0356 28.1545 17.1957 27.7721 17.4909C27.3896 17.786 27.1157 18.1996 26.9933 18.667H20.2495L21.2875 16.8274ZM29.9 18.667H28.3148C28.404 18.5396 28.5226 18.4356 28.6606 18.3638C28.7985 18.292 28.9517 18.2545 29.1073 18.2545C29.2628 18.2545 29.416 18.292 29.5539 18.3638C29.6919 18.4356 29.8105 18.5396 29.8997 18.667H29.9ZM19.1601 19.8828C19.1753 19.8839 19.1905 19.8857 19.2058 19.8857H32.7641H32.7719C33.2188 19.8857 33.4997 20.3197 33.5147 20.7345L33.0539 24.2225C33.0504 24.249 33.0487 24.2757 33.0486 24.3024C33.0481 24.3426 33.0319 24.3811 33.0034 24.4095C32.975 24.438 32.9365 24.4542 32.8963 24.4547H19.0838C19.0436 24.4542 19.0051 24.438 18.9767 24.4095C18.9482 24.3811 18.932 24.3426 18.9315 24.3024C18.9315 24.2768 18.9299 24.2512 18.9266 24.2258L18.4849 20.7357C18.4981 20.3261 18.7477 19.9149 19.1601 19.8828Z" fill="black"/>
<path d="M23.7129 23.4854H28.2874C28.449 23.4854 28.604 23.4212 28.7183 23.3069C28.8325 23.1926 28.8967 23.0376 28.8967 22.876C28.8967 22.7144 28.8325 22.5594 28.7183 22.4451C28.604 22.3308 28.449 22.2666 28.2874 22.2666H23.7129C23.5513 22.2666 23.3963 22.3308 23.282 22.4451C23.1677 22.5594 23.1035 22.7144 23.1035 22.876C23.1035 23.0376 23.1677 23.1926 23.282 23.3069C23.3963 23.4212 23.5513 23.4854 23.7129 23.4854Z" fill="black"/>
<path d="M20.5499 24.0737C20.8679 24.0736 21.1788 23.9793 21.4432 23.8025C21.7076 23.6258 21.9137 23.3746 22.0354 23.0807C22.157 22.7868 22.1888 22.4635 22.1267 22.1516C22.0646 21.8396 21.9114 21.5531 21.6865 21.3283C21.4616 21.1034 21.175 20.9503 20.863 20.8883C20.5511 20.8263 20.2278 20.8582 19.9339 20.9799C19.6401 21.1017 19.389 21.3078 19.2123 21.5723C19.0356 21.8368 18.9414 22.1477 18.9414 22.4658C18.942 22.8921 19.1116 23.3009 19.4132 23.6023C19.7147 23.9037 20.1235 24.0733 20.5499 24.0737ZM20.5499 22.0762C20.6268 22.0762 20.7021 22.0991 20.7661 22.1419C20.8301 22.1847 20.8799 22.2456 20.9094 22.3167C20.9388 22.3879 20.9465 22.4661 20.9314 22.5416C20.9164 22.6172 20.8793 22.6865 20.8249 22.7409C20.7704 22.7954 20.701 22.8324 20.6255 22.8475C20.55 22.8625 20.4717 22.8548 20.4006 22.8253C20.3295 22.7959 20.2687 22.746 20.2259 22.682C20.1831 22.618 20.1602 22.5428 20.1602 22.4658C20.1602 22.3624 20.2013 22.2634 20.2744 22.1903C20.3475 22.1173 20.4465 22.0762 20.5499 22.0762Z" fill="black"/>
<path d="M31.4499 24.0737C31.768 24.0737 32.0789 23.9794 32.3434 23.8027C32.6078 23.626 32.814 23.3748 32.9357 23.0809C33.0574 22.7871 33.0892 22.4637 33.0272 22.1518C32.9651 21.8398 32.8119 21.5533 32.587 21.3284C32.3621 21.1035 32.0755 20.9503 31.7635 20.8883C31.4516 20.8263 31.1282 20.8581 30.8344 20.9799C30.5405 21.1016 30.2894 21.3078 30.1127 21.5723C29.936 21.8368 29.8418 22.1477 29.8418 22.4658C29.8423 22.8921 30.0119 23.3008 30.3134 23.6022C30.6149 23.9037 31.0236 24.0732 31.4499 24.0737ZM31.4499 22.0762C31.5269 22.0762 31.6022 22.099 31.6663 22.1418C31.7303 22.1846 31.7802 22.2454 31.8097 22.3166C31.8392 22.3877 31.8469 22.466 31.8318 22.5415C31.8168 22.6171 31.7797 22.6864 31.7253 22.7409C31.6708 22.7954 31.6014 22.8324 31.5259 22.8475C31.4504 22.8625 31.3721 22.8548 31.3009 22.8253C31.2298 22.7958 31.169 22.7459 31.1262 22.6819C31.0834 22.6179 31.0605 22.5426 31.0605 22.4656C31.0607 22.3623 31.1017 22.2633 31.1747 22.1903C31.2477 22.1173 31.3467 22.0763 31.4499 22.0762Z" fill="black"/>
</svg>
