<svg width="52" height="52" viewBox="0 0 52 52" fill="none" xmlns="http://www.w3.org/2000/svg">
<path d="M44.1896 28.2997L43.9487 28.4297C42.9755 27.2487 41.2891 26.791 40.0049 27.4422L39.9913 27.4493L39.4226 27.7554C38.7443 27.181 37.9054 26.8299 37.0202 26.7499C36.135 26.67 35.2467 26.865 34.4765 27.3085L31.4139 28.9741H27.338C26.4558 28.9729 25.5851 28.7734 24.7904 28.3902L24.2298 28.1192C22.6337 27.3426 20.8538 27.0229 19.0872 27.1954C17.3207 27.368 15.6363 28.026 14.2206 29.0966C14.2073 29.1068 14.1943 29.1169 14.1819 29.1284L12.8284 30.3333C12.3169 30.7877 11.7122 31.1247 11.0568 31.3208L10.2881 28.7978C10.25 28.6729 10.1728 28.5635 10.0679 28.4858C9.96291 28.4081 9.83579 28.3662 9.70521 28.3662H3.1592C3.07294 28.3662 2.98767 28.3845 2.90901 28.4199C2.83036 28.4553 2.76012 28.507 2.70293 28.5716C2.64575 28.6362 2.60294 28.7122 2.57731 28.7945C2.55169 28.8769 2.54384 28.9638 2.55429 29.0494L4.73626 46.9407C4.7543 47.0885 4.82577 47.2245 4.93721 47.3232C5.04865 47.4218 5.19234 47.4763 5.34117 47.4763H15.1596C15.2549 47.4763 15.3488 47.454 15.4338 47.4111C15.5188 47.3683 15.5927 47.3061 15.6493 47.2295C15.706 47.153 15.7439 47.0643 15.7601 46.9704C15.7763 46.8766 15.7703 46.7803 15.7425 46.6892L14.4521 42.4567L18.4694 39.9176C19.0071 39.6204 19.6376 39.5388 20.2332 39.6893C20.2458 39.6925 20.2585 39.6953 20.2712 39.6975L28.4427 41.2024C30.6634 41.5995 32.953 41.2762 34.977 40.2798C35.0029 40.267 35.0278 40.2523 35.0516 40.236L49.1853 30.5311C49.3133 30.4432 49.403 30.3097 49.4359 30.1579C49.4688 30.0061 49.4425 29.8475 49.3624 29.7144C48.8481 28.858 48.0234 28.233 47.0598 27.9695C46.0962 27.7059 45.0682 27.8242 44.1896 28.2997ZM40.5621 28.526C41.3049 28.1541 42.2402 28.459 42.8377 29.0291L37.4782 31.9205L37.1633 32.0865C36.9936 31.6046 36.7455 31.154 36.4292 30.7528L40.5621 28.526ZM35.0663 28.3752L35.0807 28.3671C35.5607 28.0896 36.1064 27.9459 36.6608 27.9511C37.2153 27.9563 37.7582 28.1102 38.2329 28.3966L35.508 29.8648C34.9885 29.4856 34.3957 29.2188 33.7674 29.0813L35.0663 28.3752ZM5.88026 46.2575L3.84749 29.5849H9.25356L14.3368 46.2575H5.88026ZM34.3974 39.2058C32.6179 40.0719 30.6095 40.351 28.6612 40.0029L20.5097 38.5019C19.6131 38.2805 18.6658 38.4089 17.8605 38.8609C17.851 38.8662 17.8416 38.8718 17.8323 38.8777L14.0832 41.2479L11.4121 32.488C12.2357 32.2397 12.9953 31.8149 13.6379 31.243L14.9723 30.0547C16.2087 29.1253 17.6776 28.5552 19.2172 28.4071C20.7569 28.259 22.3075 28.5387 23.6984 29.2154L24.2589 29.4865C25.2191 29.9494 26.2711 30.1905 27.3371 30.192H32.7739C33.5728 30.1932 34.3463 30.4725 34.9617 30.982C35.577 31.4916 35.9957 32.1995 36.1458 32.9841L32.2057 32.8059C30.7733 32.7414 29.338 32.8077 27.9177 33.0039C27.7576 33.0261 27.6129 33.1109 27.5153 33.2398C27.4178 33.3687 27.3755 33.531 27.3976 33.6911C27.4198 33.8512 27.5047 33.996 27.6336 34.0935C27.7624 34.191 27.9248 34.2334 28.0849 34.2112C29.432 34.0251 30.7933 33.9624 32.1518 34.0238L36.7888 34.2335C36.798 34.2335 36.8073 34.2341 36.8164 34.2341C36.978 34.2341 37.133 34.1699 37.2473 34.0557C37.3616 33.9414 37.4258 33.7864 37.4258 33.6248C37.4258 33.5262 37.4216 33.4285 37.4156 33.3313L38.0515 32.9961L44.7685 29.3722C45.2845 29.0929 45.8783 28.9918 46.4577 29.0847C47.0371 29.1776 47.5695 29.4592 47.9723 29.8858L34.3974 39.2058Z" fill="black"/>
<path d="M7.81738 43.7359C7.81738 44.1153 7.9299 44.4863 8.14071 44.8018C8.35152 45.1173 8.65115 45.3632 9.00171 45.5084C9.35228 45.6536 9.73802 45.6916 10.1102 45.6175C10.4823 45.5435 10.8242 45.3608 11.0925 45.0925C11.3608 44.8242 11.5435 44.4823 11.6175 44.1102C11.6916 43.738 11.6536 43.3523 11.5084 43.0017C11.3632 42.6512 11.1173 42.3515 10.8018 42.1407C10.4863 41.9299 10.1153 41.8174 9.7359 41.8174C9.22725 41.8179 8.7396 42.0203 8.37993 42.3799C8.02026 42.7396 7.81795 43.2272 7.81738 43.7359ZM9.7359 43.0361C9.8743 43.0361 10.0096 43.0772 10.1247 43.1541C10.2397 43.231 10.3294 43.3402 10.3824 43.4681C10.4354 43.596 10.4492 43.7367 10.4222 43.8724C10.3952 44.0082 10.3286 44.1328 10.2307 44.2307C10.1328 44.3286 10.0082 44.3952 9.87241 44.4222C9.73667 44.4492 9.59597 44.4354 9.46811 44.3824C9.34024 44.3294 9.23095 44.2397 9.15406 44.1247C9.07717 44.0096 9.03613 43.8743 9.03613 43.7359C9.0364 43.5504 9.11021 43.3726 9.24138 43.2414C9.37256 43.1102 9.55039 43.0364 9.7359 43.0361Z" fill="black"/>
<path d="M27.8904 4.52441H14.5122C13.9598 4.52503 13.4302 4.74474 13.0396 5.13533C12.649 5.52592 12.4293 6.05549 12.4287 6.60787V18.9155C12.4293 19.4679 12.649 19.9974 13.0396 20.388C13.4302 20.7786 13.9598 20.9983 14.5122 20.9989H15.8044C15.9458 21.7252 16.3353 22.3798 16.9064 22.8504C17.4774 23.321 18.1943 23.5784 18.9343 23.5784C19.6743 23.5784 20.3912 23.321 20.9622 22.8504C21.5332 22.3798 21.9228 21.7252 22.0641 20.9989H30.6173C30.7591 21.7248 31.1489 22.3789 31.7199 22.8492C32.2909 23.3194 33.0075 23.5765 33.7472 23.5765C34.4869 23.5765 35.2036 23.3194 35.7746 22.8492C36.3456 22.3789 36.7353 21.7248 36.8771 20.9989H37.4876C38.04 20.9983 38.5696 20.7786 38.9602 20.388C39.3508 19.9974 39.5705 19.4679 39.5711 18.9155V13.6777C39.5709 13.6499 39.5688 13.6222 39.5648 13.5947C39.5641 13.5895 39.5633 13.5845 39.5625 13.5793C39.557 13.5454 39.5486 13.512 39.5375 13.4795C39.5358 13.4748 39.5341 13.4702 39.5324 13.4655C39.5202 13.4328 39.5053 13.4013 39.4878 13.3712C39.4852 13.3667 39.4825 13.3625 39.4799 13.3581C39.4609 13.3275 39.4393 13.2987 39.4153 13.2719C39.4136 13.2699 39.4124 13.2676 39.4107 13.2657L35.6137 9.12865C35.4184 8.91623 35.1811 8.7466 34.9169 8.63046C34.6528 8.51432 34.3674 8.45419 34.0788 8.45387H29.9738V6.60787C29.9732 6.05549 29.7535 5.52592 29.3629 5.13533C28.9723 4.74474 28.4428 4.52503 27.8904 4.52441ZM13.6475 18.9158V6.60787C13.6477 6.37861 13.7389 6.15881 13.901 5.9967C14.0631 5.83459 14.2829 5.74341 14.5122 5.74316H27.8904C28.1196 5.74341 28.3394 5.83459 28.5016 5.9967C28.6637 6.15881 28.7548 6.37861 28.7551 6.60787V19.7805H22.0641C21.9228 19.0542 21.5332 18.3996 20.9622 17.929C20.3912 17.4584 19.6743 17.201 18.9343 17.201C18.1943 17.201 17.4774 17.4584 16.9064 17.929C16.3353 18.3996 15.9458 19.0542 15.8044 19.7805H14.5122C14.2829 19.7803 14.063 19.6891 13.9009 19.5269C13.7388 19.3647 13.6476 19.1448 13.6475 18.9155V18.9158ZM18.9343 22.3601C18.5446 22.3601 18.1637 22.2446 17.8396 22.0281C17.5156 21.8116 17.2631 21.5038 17.114 21.1438C16.9648 20.7838 16.9258 20.3876 17.0018 20.0054C17.0779 19.6232 17.2655 19.2721 17.5411 18.9966C17.8166 18.721 18.1677 18.5334 18.5499 18.4573C18.9321 18.3813 19.3283 18.4203 19.6883 18.5695C20.0483 18.7186 20.3561 18.9711 20.5726 19.2952C20.7891 19.6192 20.9046 20.0001 20.9046 20.3898C20.904 20.9121 20.6962 21.4129 20.3268 21.7822C19.9574 22.1515 19.4566 22.3592 18.9343 22.3598V22.3601ZM33.7472 22.3601C33.3575 22.3601 32.9766 22.2446 32.6525 22.0281C32.3285 21.8116 32.076 21.5038 31.9269 21.1438C31.7777 20.7838 31.7387 20.3876 31.8147 20.0054C31.8908 19.6232 32.0784 19.2721 32.354 18.9966C32.6295 18.721 32.9806 18.5334 33.3628 18.4573C33.745 18.3813 34.1412 18.4203 34.5012 18.5695C34.8612 18.7186 35.1689 18.9711 35.3854 19.2952C35.6019 19.6192 35.7175 20.0001 35.7175 20.3898C35.7169 20.9121 35.509 21.4129 35.1397 21.7822C34.7703 22.1515 34.2695 22.3592 33.7472 22.3598V22.3601ZM38.3523 18.9158C38.3521 19.1451 38.2609 19.3648 38.0988 19.5269C37.9367 19.689 37.7169 19.7802 37.4876 19.7804H36.8772C36.7354 19.0545 36.3457 18.4004 35.7747 17.9301C35.2037 17.4599 34.487 17.2028 33.7473 17.2028C33.0077 17.2028 32.291 17.4599 31.72 17.9301C31.149 18.4004 30.7593 19.0545 30.6174 19.7804H29.9739V14.2871H38.3528L38.3523 18.9158ZM34.0788 9.67262C34.1985 9.67274 34.317 9.69769 34.4266 9.74591C34.5362 9.79412 34.6347 9.86454 34.7157 9.95273L37.5753 13.0684H29.9738V9.67262H34.0788Z" fill="black"/>
</svg>
