<svg width="52" height="52" viewBox="0 0 52 52" fill="none" xmlns="http://www.w3.org/2000/svg">
<path d="M50.6438 22.4756L45.5001 19.9487C45.6532 19.9296 45.7933 19.8531 45.8921 19.7347C45.9909 19.6163 46.0411 19.4647 46.0324 19.3107C45.9882 18.7553 45.8752 18.2075 45.6959 17.6799C45.3082 16.5451 44.1103 15.816 42.6382 15.816H42.6056C41.6825 15.8228 39.9973 15.8292 39.2619 15.8318L37.7391 13.0734C36.6958 11.2351 35.1815 9.12793 32.7027 9.12793H32.6705L14.3813 9.26291C12.3441 9.27794 10.5442 10.7065 9.31185 13.2857L7.76333 16.0776C7.03046 16.0815 5.32583 16.0909 4.39146 16.098C2.90438 16.1089 1.70218 16.8583 1.32854 18.0073C1.15724 18.5374 1.0523 19.0866 1.01613 19.6425C1.01279 19.7245 1.02607 19.8064 1.05517 19.8832C1.08427 19.96 1.12859 20.0301 1.18547 20.0893C1.24235 20.1486 1.31061 20.1957 1.38616 20.2279C1.4617 20.2601 1.54298 20.2767 1.6251 20.2766H1.63038L4.11866 20.2551C3.04971 21.004 2.35818 22.3235 2.36945 23.8526C2.36965 23.8781 2.37148 23.9037 2.37493 23.929L3.51142 32.4056C3.52617 32.9838 3.74494 33.5381 4.12902 33.9704C4.5131 34.4028 5.03774 34.6854 5.61011 34.7682L5.63042 37.5329C5.63384 37.936 5.79626 38.3215 6.08235 38.6055C6.36845 38.8896 6.75509 39.0492 7.15822 39.0497H7.1696L9.95901 39.0294C10.3641 39.0259 10.7513 38.8619 11.0356 38.5733C11.32 38.2847 11.4783 37.8952 11.4757 37.4901L11.4554 34.753L31.279 34.6069C31.8878 36.1522 32.9411 37.6039 34.1626 38.4367L40.5102 42.7659C40.6114 42.835 40.7311 42.8719 40.8536 42.8719C40.9761 42.8719 41.0958 42.835 41.197 42.7659L47.5447 38.4368C49.4734 37.1209 50.9845 34.2636 50.9845 31.931V23.0221C50.9844 22.9083 50.9524 22.7967 50.8922 22.7002C50.832 22.6036 50.746 22.5258 50.6438 22.4756ZM42.6142 17.0349C43.5501 17.027 44.3278 17.4454 44.5425 18.0739C44.6164 18.2921 44.6764 18.5147 44.7223 18.7405L43.0662 18.7533L41.1223 17.7986C41.0388 17.7576 40.947 17.7363 40.854 17.7363C40.7609 17.7363 40.6691 17.7576 40.5856 17.7986L40.398 17.89L39.9333 17.0481C40.7651 17.045 41.9103 17.0401 42.6142 17.0349ZM10.3869 13.8604C10.393 13.8494 10.3988 13.8381 10.4042 13.8267C10.9956 12.5841 12.2997 10.4971 14.3903 10.4817L32.6792 10.3469H32.7032C34.1657 10.3469 35.3564 11.3441 36.6755 13.6688L39.3024 18.427L37.3453 19.3854L36.3907 19.3924C36.2649 18.3171 35.7487 17.3253 34.94 16.6054C34.1313 15.8856 33.0864 15.4877 32.0037 15.4875H31.9701C30.8823 15.4969 29.836 15.9069 29.0313 16.639C28.2266 17.3711 27.7199 18.3741 27.6079 19.4562L7.20088 19.6048L10.3869 13.8604ZM35.1618 19.4013L28.8355 19.4473C28.9445 18.6895 29.3216 17.9959 29.8984 17.4925C30.4751 16.989 31.2133 16.7091 31.9789 16.7035C32.7445 16.698 33.4866 16.9671 34.0707 17.4621C34.6547 17.9571 35.0419 18.6452 35.1618 19.4013ZM2.48767 18.3837C2.69303 17.7523 3.46175 17.3234 4.4005 17.3165C5.10656 17.3112 6.25178 17.3047 7.0855 17.3001L6.13214 19.0188L2.31786 19.0519C2.36042 18.8258 2.41713 18.6027 2.48767 18.3837ZM10.2572 37.4987C10.2577 37.5807 10.2257 37.6595 10.1682 37.718C10.1106 37.7764 10.0323 37.8096 9.95028 37.8103L7.16086 37.8306H7.15822C7.07665 37.8305 6.99841 37.7982 6.94052 37.7407C6.88263 37.6833 6.84976 37.6053 6.84907 37.5237L6.82875 34.7866L10.2366 34.7615L10.2572 37.4987ZM5.96618 33.5743H5.95694C5.63298 33.574 5.32224 33.4458 5.09233 33.2176C4.86242 32.9893 4.73193 32.6795 4.72925 32.3556C4.72907 32.33 4.72731 32.3044 4.72397 32.279L3.58789 23.8066C3.59145 22.0064 4.81954 20.8994 6.05586 20.8206C6.09094 20.8271 6.12652 20.8305 6.1622 20.8308H6.16667L34.8193 20.6222L31.0645 22.4612C30.9621 22.5113 30.8758 22.5892 30.8155 22.6859C30.7552 22.7826 30.7232 22.8944 30.7232 23.0084V31.931C30.7271 32.4228 30.7864 32.9125 30.8998 33.391L5.96618 33.5743ZM49.7657 31.931C49.7657 33.8372 48.4341 36.3553 46.8579 37.4299L40.8536 41.5249L34.8492 37.4299C33.2731 36.3553 31.9415 33.8372 31.9415 31.931V23.3896L40.8532 19.025L49.7657 23.4017V31.931Z" fill="#393185"/>
<path d="M38.3324 29.4452C38.2228 29.3263 38.0705 29.2559 37.909 29.2494C37.7475 29.2428 37.5901 29.3007 37.4712 29.4102C37.3524 29.5198 37.282 29.6721 37.2754 29.8336C37.2689 29.9951 37.3267 30.1526 37.4363 30.2714L39.4885 32.4966C39.5978 32.6151 39.7496 32.6855 39.9107 32.6923C40.0718 32.6991 40.2291 32.6418 40.348 32.5329L44.234 28.9735C44.3522 28.8641 44.4222 28.7124 44.4288 28.5514C44.4355 28.3905 44.3781 28.2335 44.2693 28.1148C44.1606 27.996 44.0092 27.9251 43.8483 27.9177C43.6875 27.9102 43.5302 27.9667 43.4108 28.0748L39.9727 31.2239L38.3324 29.4452Z" fill="#393185"/>
<path d="M8.67036 24.5918H8.65167C7.98501 24.5942 7.34659 24.8613 6.87687 25.3344C6.40715 25.8075 6.1446 26.4478 6.14699 27.1145C6.14937 27.7811 6.41649 28.4196 6.88958 28.8893C7.36267 29.359 8.00298 29.6215 8.66965 29.6192H8.68864C9.35531 29.6167 9.99371 29.3496 10.4634 28.8765C10.9331 28.4033 11.1956 27.763 11.1932 27.0963C11.1907 26.4297 10.9236 25.7913 10.4505 25.3216C9.97735 24.8519 9.33703 24.5894 8.67036 24.5918ZM8.6797 28.4004H8.66955C8.32611 28.4017 7.99625 28.2664 7.75252 28.0245C7.50879 27.7825 7.37116 27.4536 7.3699 27.1102C7.36865 26.7668 7.50388 26.4369 7.74584 26.1932C7.9878 25.9494 8.31667 25.8118 8.6601 25.8106H8.67026C9.01369 25.8093 9.34356 25.9445 9.58729 26.1865C9.83102 26.4285 9.96865 26.7573 9.9699 27.1008C9.97116 27.4442 9.83593 27.7741 9.59397 28.0178C9.35201 28.2615 9.02314 28.3992 8.6797 28.4004Z" fill="#393185"/>
<path d="M18.7023 24.8047H18.6976C18.6175 24.8053 18.5384 24.8216 18.4647 24.8528C18.3909 24.8839 18.3241 24.9293 18.2679 24.9863C18.2117 25.0433 18.1673 25.1108 18.1372 25.185C18.1071 25.2591 18.092 25.3385 18.0925 25.4185L18.1054 27.1732C18.1066 27.3341 18.1713 27.4879 18.2855 27.6012C18.3997 27.7146 18.554 27.7781 18.7148 27.7781H18.7194C18.7994 27.7776 18.8785 27.7612 18.9523 27.73C19.026 27.6989 19.0928 27.6535 19.149 27.5965C19.2052 27.5395 19.2495 27.472 19.2796 27.3978C19.3097 27.3237 19.3249 27.2443 19.3243 27.1643L19.3114 25.4097C19.3102 25.2489 19.2456 25.0951 19.1315 24.9817C19.0174 24.8684 18.8631 24.8048 18.7023 24.8047Z" fill="#393185"/>
<path d="M15.4476 24.8291C15.3675 24.8297 15.2884 24.846 15.2147 24.8772C15.1409 24.9083 15.0741 24.9537 15.0179 25.0107C14.9617 25.0677 14.9173 25.1352 14.8872 25.2094C14.8571 25.2835 14.842 25.3629 14.8425 25.4429L14.8555 27.1976C14.8567 27.3585 14.9214 27.5123 15.0356 27.6257C15.1498 27.739 15.3041 27.8026 15.4649 27.8025H15.4695C15.5495 27.802 15.6287 27.7856 15.7024 27.7544C15.7761 27.7233 15.8429 27.6779 15.8991 27.6209C15.9553 27.5639 15.9997 27.4963 16.0298 27.4222C16.0598 27.348 16.075 27.2686 16.0744 27.1886L16.0614 25.4339C16.0594 25.2726 15.9937 25.1185 15.8788 25.0053C15.7639 24.8921 15.6089 24.8287 15.4476 24.8291Z" fill="#393185"/>
<path d="M21.9523 24.7812H21.9476C21.8675 24.7818 21.7884 24.7982 21.7147 24.8293C21.6409 24.8605 21.5741 24.9058 21.5179 24.9629C21.4617 25.0199 21.4173 25.0874 21.3872 25.1615C21.3571 25.2357 21.342 25.3151 21.3425 25.3951L21.3554 27.1497C21.3566 27.3105 21.4213 27.4644 21.5355 27.5777C21.6497 27.691 21.804 27.7546 21.9648 27.7546H21.9694C22.0494 27.754 22.1285 27.7377 22.2023 27.7065C22.276 27.6753 22.3428 27.63 22.399 27.573C22.4552 27.516 22.4995 27.4484 22.5296 27.3743C22.5597 27.3001 22.5749 27.2208 22.5743 27.1407L22.5614 25.3862C22.5602 25.2254 22.4955 25.0716 22.3815 24.9583C22.2674 24.8449 22.1131 24.7813 21.9523 24.7812Z" fill="#393185"/>
<path d="M25.2024 24.7568H25.1977C25.1177 24.7574 25.0385 24.7738 24.9648 24.8049C24.8911 24.8361 24.8243 24.8815 24.7681 24.9385C24.7119 24.9955 24.6675 25.063 24.6375 25.1371C24.6074 25.2113 24.5922 25.2907 24.5928 25.3707L24.6057 27.1254C24.6069 27.2862 24.6716 27.44 24.7858 27.5533C24.8999 27.6666 25.0542 27.7302 25.2151 27.7302H25.2196C25.2997 27.7296 25.3788 27.7133 25.4525 27.6821C25.5262 27.6509 25.5931 27.6056 25.6492 27.5486C25.7054 27.4916 25.7498 27.424 25.7799 27.3499C25.81 27.2757 25.8251 27.1964 25.8245 27.1163L25.8116 25.3616C25.8104 25.2008 25.7457 25.047 25.6316 24.9337C25.5175 24.8204 25.3632 24.7569 25.2024 24.7568Z" fill="#393185"/>
<path d="M28.4524 24.7334H28.4477C28.3677 24.734 28.2885 24.7503 28.2148 24.7815C28.1411 24.8127 28.0743 24.858 28.0181 24.915C27.9619 24.972 27.9175 25.0395 27.8875 25.1137C27.8574 25.1879 27.8422 25.2672 27.8428 25.3472L27.8556 27.1018C27.8568 27.2627 27.9215 27.4165 28.0356 27.5298C28.1498 27.6431 28.3041 27.7067 28.465 27.7067H28.4695C28.5496 27.7061 28.6287 27.6898 28.7024 27.6586C28.7761 27.6275 28.8429 27.5821 28.8991 27.5251C28.9553 27.4681 28.9997 27.4006 29.0298 27.3264C29.0598 27.2523 29.075 27.1729 29.0744 27.0929L29.0616 25.3383C29.0605 25.1775 28.9957 25.0236 28.8816 24.9103C28.7675 24.797 28.6132 24.7334 28.4524 24.7334Z" fill="#393185"/>
</svg>
