<svg width="14" height="14" viewBox="0 0 14 14" fill="none" xmlns="http://www.w3.org/2000/svg">
<g clip-path="url(#clip0)">
<path d="M6.50855 10.7708V13.5085C6.50855 13.78 6.7286 13.9971 6.99722 13.9971C7.26585 13.9971 7.48875 13.7771 7.48875 13.5085V10.7708C8.39465 10.5507 9.06908 9.73341 9.06908 8.75893C9.06908 7.78445 8.39465 6.96999 7.48875 6.74709V0.488671C7.48875 0.217187 7.26871 0 6.99722 0C6.72574 0 6.50855 0.220045 6.50855 0.488671V6.74709C5.60265 6.96714 4.92822 7.78445 4.92822 8.75893C4.92822 9.73341 5.60551 10.5507 6.50855 10.7708ZM7.00008 7.67014C7.6002 7.67014 8.08888 8.15881 8.08888 8.75893C8.08888 9.35905 7.6002 9.85058 7.00008 9.85058C6.39996 9.85058 5.91128 9.36191 5.91128 8.76179C5.91128 8.16167 6.39996 7.67014 7.00008 7.67014Z" fill="#7A809A"/>
<path d="M4.31956 5.50691C4.31956 4.53528 3.64513 3.71797 2.73923 3.49507V0.491601C2.73923 0.220117 2.51919 0.00292969 2.2477 0.00292969C1.97622 0.00292969 1.75903 0.222975 1.75903 0.491601V3.49507C0.853134 3.71512 0.178711 4.53243 0.178711 5.50691C0.178711 6.48139 0.853134 7.29585 1.75903 7.51875V13.5114C1.75903 13.7829 1.97908 14.0001 2.2477 14.0001C2.51633 14.0001 2.73923 13.78 2.73923 13.5114V7.51875C3.64513 7.2987 4.31956 6.48139 4.31956 5.50691ZM2.25056 6.59856C1.65044 6.59856 1.16177 6.10989 1.16177 5.50977C1.16177 4.91822 1.63615 4.43526 2.2277 4.42097C2.23627 4.42097 2.24485 4.42097 2.25342 4.42097C2.26199 4.42097 2.27057 4.42097 2.27914 4.42097C2.86783 4.43526 3.34507 4.91822 3.34507 5.50977C3.33936 6.10703 2.85068 6.59856 2.25056 6.59856Z" fill="#7A809A"/>
<path d="M11.7497 14.0001C12.0211 14.0001 12.2412 13.78 12.2412 13.5114V7.51875C13.1471 7.2987 13.8215 6.48139 13.8215 5.50691C13.8215 4.53243 13.1471 3.71797 12.2412 3.49507V0.491601C12.2412 0.220117 12.0211 0.00292969 11.7497 0.00292969C11.4782 0.00292969 11.261 0.222975 11.261 0.491601V3.49507C10.3551 3.71512 9.68066 4.53243 9.68066 5.50691C9.68066 6.48139 10.3551 7.29585 11.261 7.51875V13.5114C11.261 13.7829 11.481 14.0001 11.7497 14.0001ZM10.6609 5.50691C10.6609 4.91536 11.1352 4.4324 11.7268 4.41812C11.7354 4.41812 11.7439 4.41812 11.7525 4.41812C11.7611 4.41812 11.7697 4.41812 11.7782 4.41812C12.3669 4.4324 12.8442 4.91536 12.8442 5.50691C12.8442 6.10703 12.3555 6.5957 11.7554 6.5957C11.1553 6.5957 10.6609 6.10703 10.6609 5.50691Z" fill="#7A809A"/>
</g>
<defs>
<clipPath id="clip0">
<rect width="14" height="14" rx="7" fill="white"/>
</clipPath>
</defs>
</svg>
