<svg width="52" height="52" viewBox="0 0 52 52" fill="none" xmlns="http://www.w3.org/2000/svg">
<path d="M34.759 13.9909L23.384 2.61595C23.2697 2.50169 23.1147 2.43751 22.9531 2.4375H8.73438C7.81886 2.43852 6.94114 2.80266 6.29378 3.45003C5.64641 4.09739 5.28227 4.97511 5.28125 5.89062V40.0156C5.28227 40.9311 5.64641 41.8089 6.29378 42.4562C6.94114 43.1036 7.81886 43.4677 8.73438 43.4688H27.5914C28.3198 45.1996 29.523 46.689 31.0621 47.7649C32.6011 48.8409 34.4132 49.4594 36.2889 49.5491C38.1646 49.6388 40.0274 49.196 41.6621 48.2719C43.2968 47.3477 44.6367 45.9799 45.5269 44.3265C46.4172 42.6731 46.8215 40.8015 46.6931 38.9281C46.5647 37.0546 45.909 35.2557 44.8015 33.7392C43.6941 32.2227 42.1802 31.0504 40.4347 30.3578C38.6892 29.6653 36.7834 29.4807 34.9375 29.8254V14.4219C34.9375 14.3418 34.9217 14.2626 34.8911 14.1887C34.8605 14.1147 34.8156 14.0475 34.759 13.9909ZM23.5625 4.51801L32.857 13.8125H25.7969C25.2045 13.8118 24.6366 13.5762 24.2177 13.1573C23.7988 12.7384 23.5632 12.1705 23.5625 11.5781V4.51801ZM8.73438 42.25C8.14199 42.2493 7.57406 42.0137 7.15518 41.5948C6.73629 41.1759 6.50067 40.608 6.5 40.0156V5.89062C6.50067 5.29824 6.73629 4.73031 7.15518 4.31143C7.57406 3.89254 8.14199 3.65692 8.73438 3.65625H22.3438V11.5781C22.3448 12.4936 22.7089 13.3714 23.3563 14.0187C24.0036 14.6661 24.8814 15.0302 25.7969 15.0312H33.7188V30.1324C31.2757 30.9187 29.2306 32.618 28.0102 34.8758C26.7898 37.1335 26.4884 39.7753 27.1688 42.25H8.73438ZM45.5 39.6094C45.5016 41.3391 44.99 43.0305 44.03 44.4694C43.07 45.9083 41.7047 47.0301 40.1069 47.6928C38.5091 48.3555 36.7506 48.5293 35.054 48.1922C33.3574 47.8551 31.7989 47.0223 30.5758 45.7992C29.3527 44.5761 28.5199 43.0176 28.1828 41.321C27.8457 39.6244 28.0195 37.8659 28.6822 36.2681C29.3449 34.6703 30.4667 33.305 31.9056 32.345C33.3445 31.385 35.0359 30.8734 36.7656 30.875C39.0813 30.8777 41.3014 31.7988 42.9388 33.4362C44.5762 35.0736 45.4973 37.2937 45.5 39.6094Z" fill="black"/>
<path d="M25.0859 33.3125H10.4609C10.2993 33.3125 10.1443 33.3767 10.03 33.491C9.91576 33.6053 9.85156 33.7603 9.85156 33.9219C9.85156 34.0835 9.91576 34.2385 10.03 34.3528C10.1443 34.467 10.2993 34.5312 10.4609 34.5312H25.0859C25.2476 34.5312 25.4026 34.467 25.5168 34.3528C25.6311 34.2385 25.6953 34.0835 25.6953 33.9219C25.6953 33.7603 25.6311 33.6053 25.5168 33.491C25.4026 33.3767 25.2476 33.3125 25.0859 33.3125Z" fill="black"/>
<path d="M21.3281 36.7656H10.4609C10.2993 36.7656 10.1443 36.8298 10.03 36.9441C9.91576 37.0584 9.85156 37.2134 9.85156 37.375C9.85156 37.5366 9.91576 37.6916 10.03 37.8059C10.1443 37.9202 10.2993 37.9844 10.4609 37.9844H21.3281C21.4897 37.9844 21.6447 37.9202 21.759 37.8059C21.8733 37.6916 21.9375 37.5366 21.9375 37.375C21.9375 37.2134 21.8733 37.0584 21.759 36.9441C21.6447 36.8298 21.4897 36.7656 21.3281 36.7656Z" fill="black"/>
<path d="M28.8114 29.52V28.3907C29.097 28.2877 29.345 28.1013 29.5235 27.8557C29.7019 27.6101 29.8024 27.3165 29.8119 27.0131L30.3619 22.853C30.3654 22.8265 30.3672 22.7998 30.3672 22.7731C30.3672 21.6008 29.5756 20.6243 28.537 20.427L26.9185 17.4436C26.3682 16.4569 25.5576 15.3242 24.1672 15.3242H16.1276C15.0021 15.3242 14.0138 16.0795 13.3433 17.4518L11.67 20.4171C10.6247 20.607 9.85156 21.5734 9.85156 22.7731C9.85156 22.7987 9.85319 22.8242 9.85644 22.8496L10.3831 27.011C10.3925 27.3191 10.4955 27.617 10.6785 27.865C10.8615 28.113 11.1158 28.2993 11.4074 28.3991V29.52C11.4077 29.8015 11.5197 30.0713 11.7187 30.2704C11.9177 30.4694 12.1876 30.5813 12.469 30.5817H13.8424C14.1238 30.5813 14.3937 30.4694 14.5927 30.2704C14.7917 30.0713 14.9037 29.8015 14.904 29.52V28.4819H25.3148V29.52C25.3151 29.8015 25.427 30.0713 25.6261 30.2704C25.8251 30.4694 26.0949 30.5813 26.3764 30.5817H27.7497C28.0312 30.5813 28.301 30.4694 28.5 30.2704C28.6991 30.0713 28.811 29.8015 28.8114 29.52ZM14.4139 18.0349C14.42 18.0239 14.4259 18.0127 14.4314 18.0013C14.6955 17.4567 15.2669 16.5433 16.1275 16.5433H24.1671C24.7653 16.5433 25.2699 16.9901 25.8505 18.0314L27.1302 20.39H26.2222C26.0981 19.84 25.7906 19.3487 25.3503 18.9967C24.91 18.6446 24.363 18.4529 23.7992 18.4529C23.2355 18.4529 22.6885 18.6446 22.2482 18.9967C21.8079 19.3487 21.5004 19.84 21.3763 20.39H13.0848L14.4139 18.0349ZM24.9388 20.39H22.6597C22.7625 20.1749 22.924 19.9933 23.1257 19.8661C23.3273 19.739 23.5609 19.6715 23.7992 19.6715C24.0376 19.6715 24.2711 19.739 24.4728 19.8661C24.6744 19.9933 24.836 20.1749 24.9388 20.39ZM11.9858 21.6051C12.0042 21.6068 12.0226 21.6087 12.0412 21.6087H28.1424H28.1512C28.7539 21.6087 29.132 22.1871 29.1479 22.7361L28.5995 26.8871C28.596 26.9136 28.5942 26.9403 28.5942 26.9669C28.5932 27.0449 28.5618 27.1194 28.5067 27.1745C28.4516 27.2297 28.3771 27.2611 28.2992 27.2622H11.8968C11.8189 27.2611 11.7444 27.2297 11.6893 27.1745C11.6341 27.1194 11.6027 27.0449 11.6017 26.9669C11.6017 26.9413 11.6001 26.9158 11.5968 26.8904L11.0711 22.7373C11.0847 22.1934 11.4236 21.6435 11.9858 21.6051ZM13.6852 29.3629H12.6261V28.4819H13.6852V29.3629ZM26.5335 29.3629V28.4819H27.5926V29.3629H26.5335Z" fill="black"/>
<path d="M17.3936 25.8828H22.8256C22.9872 25.8828 23.1422 25.8186 23.2565 25.7043C23.3708 25.5901 23.435 25.4351 23.435 25.2734C23.435 25.1118 23.3708 24.9568 23.2565 24.8425C23.1422 24.7283 22.9872 24.6641 22.8256 24.6641H17.3936C17.2319 24.6641 17.0769 24.7283 16.9627 24.8425C16.8484 24.9568 16.7842 25.1118 16.7842 25.2734C16.7842 25.4351 16.8484 25.5901 16.9627 25.7043C17.0769 25.8186 17.2319 25.8828 17.3936 25.8828Z" fill="black"/>
<path d="M13.6374 26.5811C13.9925 26.5811 14.3397 26.4759 14.635 26.2786C14.9303 26.0814 15.1604 25.801 15.2964 25.4729C15.4323 25.1449 15.4679 24.7839 15.3987 24.4356C15.3294 24.0873 15.1585 23.7673 14.9074 23.5162C14.6563 23.2651 14.3364 23.0941 13.9881 23.0248C13.6398 22.9555 13.2788 22.991 12.9507 23.1269C12.6226 23.2628 12.3422 23.4929 12.1449 23.7881C11.9476 24.0834 11.8423 24.4305 11.8423 24.7857C11.8429 25.2616 12.0322 25.7179 12.3687 26.0545C12.7052 26.391 13.1615 26.5804 13.6374 26.5811ZM13.6374 24.209C13.7515 24.209 13.863 24.2428 13.9578 24.3061C14.0527 24.3695 14.1266 24.4595 14.1703 24.5649C14.2139 24.6703 14.2253 24.7862 14.2031 24.8981C14.1809 25.01 14.126 25.1127 14.0453 25.1934C13.9647 25.274 13.8619 25.329 13.75 25.3512C13.6382 25.3735 13.5222 25.3621 13.4168 25.3184C13.3115 25.2748 13.2214 25.2009 13.158 25.106C13.0947 25.0112 13.0608 24.8997 13.0608 24.7857C13.061 24.6328 13.1218 24.4862 13.2299 24.3781C13.338 24.27 13.4845 24.2092 13.6374 24.209Z" fill="black"/>
<path d="M26.5816 26.5811C26.9367 26.5811 27.2838 26.4758 27.579 26.2785C27.8743 26.0812 28.1044 25.8008 28.2403 25.4727C28.3762 25.1447 28.4117 24.7837 28.3425 24.4354C28.2732 24.0871 28.1022 23.7672 27.8511 23.5161C27.6 23.265 27.2801 23.094 26.9318 23.0247C26.5835 22.9555 26.2225 22.991 25.8945 23.1269C25.5664 23.2628 25.286 23.4929 25.0887 23.7882C24.8914 24.0834 24.7861 24.4306 24.7861 24.7857C24.7867 25.2617 24.9761 25.718 25.3127 26.0546C25.6492 26.3911 26.1056 26.5805 26.5816 26.5811ZM26.5816 24.209C26.6956 24.209 26.8071 24.2428 26.9019 24.3062C26.9968 24.3695 27.0707 24.4596 27.1143 24.565C27.158 24.6704 27.1694 24.7863 27.1471 24.8982C27.1249 25.01 27.07 25.1128 26.9893 25.1934C26.9087 25.2741 26.8059 25.329 26.6941 25.3513C26.5822 25.3735 26.4662 25.3621 26.3609 25.3184C26.2555 25.2748 26.1654 25.2009 26.1021 25.106C26.0387 25.0112 26.0049 24.8997 26.0049 24.7857C26.005 24.6328 26.0658 24.4862 26.174 24.3781C26.2821 24.27 26.4287 24.2091 26.5816 24.209Z" fill="black"/>
<path d="M30.0625 39.6734C30.0626 39.8213 30.1165 39.9642 30.2142 40.0753C30.3119 40.1865 30.4466 40.2583 30.5934 40.2773C30.7401 40.2964 30.8887 40.2614 31.0116 40.1789C31.1344 40.0964 31.2231 39.9721 31.2609 39.8291C31.3197 39.5956 31.4159 39.3732 31.5458 39.1705C31.7252 39.0057 31.9593 38.9133 32.2029 38.9111C32.4415 38.9106 32.6709 39.0028 32.8428 39.1683C33.0118 39.3455 33.1071 39.5803 33.1094 39.8252C33.1094 39.9868 33.1736 40.1418 33.2879 40.2561C33.4021 40.3704 33.5571 40.4346 33.7188 40.4346C33.8804 40.4346 34.0354 40.3704 34.1496 40.2561C34.2639 40.1418 34.3281 39.9868 34.3281 39.8252C34.3255 39.7042 34.3475 39.5839 34.3927 39.4716C34.4378 39.3594 34.5053 39.2574 34.5911 39.172C34.6768 39.0865 34.7789 39.0194 34.8914 38.9745C35.0038 38.9297 35.1241 38.9081 35.2451 38.9111C35.4853 38.9103 35.7164 39.0024 35.8901 39.1683C36.0589 39.3456 36.1541 39.5804 36.1562 39.8252V44.3165C36.1562 44.5058 36.0811 44.6873 35.9472 44.8211C35.8134 44.955 35.6318 45.0302 35.4426 45.0302C35.2533 45.0302 35.0718 44.955 34.9379 44.8211C34.8041 44.6873 34.7289 44.5058 34.7289 44.3165V43.7702C34.7289 43.6086 34.6647 43.4536 34.5504 43.3393C34.4361 43.225 34.2811 43.1608 34.1195 43.1608C33.9579 43.1608 33.8029 43.225 33.6886 43.3393C33.5743 43.4536 33.5101 43.6086 33.5101 43.7702V44.3165C33.5101 44.829 33.7137 45.3205 34.0761 45.6829C34.4385 46.0453 34.9301 46.2489 35.4426 46.2489C35.9551 46.2489 36.4466 46.0453 36.809 45.6829C37.1714 45.3205 37.375 44.829 37.375 44.3165V39.8252C37.3724 39.7042 37.3943 39.5839 37.4395 39.4717C37.4847 39.3594 37.5522 39.2574 37.6379 39.172C37.7236 39.0866 37.8258 39.0194 37.9382 38.9746C38.0506 38.9297 38.1709 38.9081 38.2919 38.9111C38.5324 38.9087 38.7641 39.0011 38.9369 39.1683C39.1058 39.3456 39.201 39.5805 39.2031 39.8253C39.2031 39.9869 39.2673 40.1419 39.3816 40.2562C39.4959 40.3705 39.6509 40.4347 39.8125 40.4347C39.9741 40.4347 40.1291 40.3705 40.2434 40.2562C40.3577 40.1419 40.4219 39.9869 40.4219 39.8253C40.4193 39.7043 40.4412 39.584 40.4864 39.4718C40.5316 39.3595 40.5991 39.2576 40.6848 39.1721C40.7705 39.0867 40.8726 39.0195 40.985 38.9747C41.0975 38.9298 41.2178 38.9082 41.3388 38.9112H41.3432C41.5811 38.9107 41.8101 39.0022 41.982 39.1668C42.0772 39.2762 42.2091 39.5992 42.27 39.828C42.3077 39.971 42.3965 40.0952 42.5195 40.1772C42.6425 40.2592 42.7912 40.2934 42.9377 40.2733C43.0849 40.2534 43.2199 40.1807 43.3176 40.0688C43.4152 39.9569 43.469 39.8133 43.4688 39.6647C43.4676 37.8888 42.7613 36.1859 41.5051 34.9305C40.2489 33.6751 38.5457 32.9698 36.7697 32.9697H36.7574C34.9813 32.9729 33.2789 33.6805 32.0238 34.9372C30.7687 36.1939 30.0634 37.8972 30.0625 39.6734ZM36.7578 34.189H36.7656C36.767 34.1891 36.7683 34.1891 36.7697 34.189C37.8897 34.1898 38.9828 34.5331 39.902 35.173C40.8213 35.8129 41.5228 36.7187 41.9125 37.7688C41.7247 37.7172 41.5307 37.6917 41.3359 37.693C40.7766 37.6956 40.2395 37.9123 39.835 38.2986C39.8273 38.3058 39.8198 38.3132 39.8125 38.321C39.8081 38.3165 39.8038 38.312 39.7993 38.3076C39.3998 37.913 38.8607 37.6921 38.2992 37.693H38.2891C37.7297 37.6956 37.1927 37.9123 36.7882 38.2986C36.7805 38.3058 36.7729 38.3132 36.7656 38.321C36.7614 38.3165 36.757 38.312 36.7526 38.3076C36.3533 37.913 35.8143 37.692 35.2529 37.6929C34.6902 37.6947 34.1495 37.9114 33.7412 38.2986C33.7336 38.3058 33.726 38.3131 33.7188 38.3208C33.7145 38.3164 33.7101 38.312 33.7058 38.3076C33.3064 37.913 32.7674 37.692 32.206 37.6929C32.0069 37.6923 31.8086 37.7192 31.6169 37.7729C32.006 36.7225 32.707 35.8162 33.6259 35.1756C34.5449 34.535 35.6377 34.1907 36.7579 34.189H36.7578Z" fill="black"/>
</svg>
