<svg width="22" height="20" viewBox="0 0 22 20" fill="none" xmlns="http://www.w3.org/2000/svg">
<path d="M16.0703 0.685242C14.2403 0.685242 12.636 1.50126 11.4309 3.04513C11.2702 3.25103 11.127 3.45703 11 3.65653C10.873 3.45698 10.7298 3.25103 10.5691 3.04513C9.36401 1.50126 7.75973 0.685242 5.92969 0.685242C2.47259 0.685242 0 3.57992 0 7.05338C0 11.0251 3.25518 14.7683 10.5547 19.1903C10.6916 19.2732 10.8458 19.3147 11 19.3147C11.1542 19.3147 11.3084 19.2733 11.4453 19.1904C18.7448 14.7683 22 11.0252 22 7.05342C22 3.58176 19.5294 0.685242 16.0703 0.685242ZM18.0107 11.9989C16.491 13.6945 14.1945 15.4799 11 17.4483C7.80549 15.4799 5.50902 13.6945 3.98935 11.9989C2.46146 10.2941 1.71875 8.6764 1.71875 7.05342C1.71875 4.55247 3.40888 2.40399 5.92969 2.40399C7.21342 2.40399 8.30801 2.96216 9.18307 4.06302C9.88277 4.9434 10.1776 5.85249 10.1796 5.85898C10.2916 6.21798 10.624 6.46252 11 6.46252C11.3761 6.46252 11.7085 6.21803 11.8204 5.85898C11.8232 5.8503 12.1091 4.96957 12.7858 4.10263C13.6656 2.97548 14.7707 2.40395 16.0703 2.40395C18.5938 2.40395 20.2812 4.55449 20.2812 7.05338C20.2812 8.67636 19.5385 10.294 18.0107 11.9989Z" fill="white"/>
</svg>
