<?xml version="1.0" standalone="no"?>
<!DOCTYPE svg PUBLIC "-//W3C//DTD SVG 1.1//EN" "http://www.w3.org/Graphics/SVG/1.1/DTD/svg11.dtd" >
<svg xmlns="http://www.w3.org/2000/svg" xmlns:xlink="http://www.w3.org/1999/xlink" version="1.1">
<metadata>
Created by FontForge 20170731 at Tue Feb 15 18:36:29 2005
 By Aleksey,,,
Copyright (C) 1993; Type Market Ltd. Moscow, 119136, Box 20; phone:(095)2071022; Created by A.Kustov
</metadata>
<defs>
<font id="HeliosC-Bold" horiz-adv-x="562" >
  <font-face 
    font-family="HeliosC"
    font-weight="700"
    font-stretch="normal"
    units-per-em="1000"
    panose-1="0 0 8 0 0 0 0 0 0 0"
    ascent="775"
    descent="-225"
    x-height="538"
    cap-height="726"
    bbox="-34 -225 1287 937"
    underline-thickness="50"
    underline-position="-200"
    unicode-range="U+0020-2122"
  />
<missing-glyph horiz-adv-x="500" 
 />
    <glyph glyph-name=".notdef" horiz-adv-x="500" 
 />
    <glyph glyph-name=".null" horiz-adv-x="0" 
 />
    <glyph glyph-name="nonmarkingreturn" horiz-adv-x="333" 
 />
    <glyph glyph-name="space" unicode=" " horiz-adv-x="281" 
 />
    <glyph glyph-name="space" unicode="&#xa0;" horiz-adv-x="281" 
 />
    <glyph glyph-name="exclam" unicode="!" horiz-adv-x="337" 
d="M243 143v-143h-148v143h148zM95 726h148v-185l-36 -342h-75l-37 342v185z" />
    <glyph glyph-name="quotedbl" unicode="&#x22;" horiz-adv-x="478" 
d="M280 452v274h99v-274h-99zM99 452v274h99v-274h-99z" />
    <glyph glyph-name="numbersign" unicode="#" 
d="M514 292l-12 -91h-98l-28 -201h-95l28 201h-98l-28 -201h-95l28 201h-98l13 91h98l17 121h-98l12 91h98l28 200h95l-28 -200h99l27 200h95l-27 -200h96l-12 -91h-97l-18 -121h98zM339 413h-98l-17 -121h97z" />
    <glyph glyph-name="dollar" unicode="$" 
d="M517 506h-130q-4 63 -25.5 83.5t-57.5 20.5v-189q128 -40 169 -80q55 -52 55 -141q0 -37 -12 -72t-37 -67.5t-70 -53.5t-105 -24v-99h-46v99q-122 10 -174.5 65t-52.5 169h132q5 -60 23 -88.5t72 -38.5v212q-46 12 -76.5 24t-65 35t-52.5 59.5t-18 86.5q0 89 54 149.5
t158 60.5v65h46v-65q29 -3 51 -7.5t52.5 -18.5t51.5 -35.5t37.5 -60t20.5 -89.5zM258 435v175q-41 -2 -63 -26t-22 -53q0 -77 85 -96zM304 285v-195q33 0 61 23.5t28 75.5q0 70 -89 96z" />
    <glyph glyph-name="percent" unicode="%" horiz-adv-x="897" 
d="M502 171q0 76 54 130t130 54q75 0 129 -54t54 -130t-54 -130t-129 -54q-76 0 -130 53.5t-54 130.5zM606 171q0 -34 23.5 -57t56.5 -23q32 0 55.5 23.5t23.5 56.5t-23.5 56.5t-55.5 23.5q-33 0 -56.5 -23.5t-23.5 -56.5zM28 533q0 76 54 130t130 54q75 0 129 -54t54 -130
t-54 -130t-129 -54q-76 0 -130 53.5t-54 130.5zM132 533q0 -34 23.5 -57t56.5 -23q32 0 55.5 23.5t23.5 56.5t-23.5 56.5t-55.5 23.5q-33 0 -56.5 -23.5t-23.5 -56.5zM684 717l-402 -737h-74l402 737h74z" />
    <glyph glyph-name="ampersand" unicode="&#x26;" horiz-adv-x="729" 
d="M325 468q67 41 67 90q0 29 -16.5 44.5t-43.5 15.5q-25 0 -42 -16t-17 -43q0 -33 52 -91zM535 376h125q-6 -70 -25.5 -118.5t-57.5 -99.5l131 -158h-170l-50 61q-81 -81 -207 -81q-100 0 -163 61t-63 145q0 40 9.5 71t45 71t99.5 79q-65 74 -65 151q0 74 53.5 120.5
t139.5 46.5q67 0 122 -44t55 -124q0 -103 -120 -173l103 -127q30 47 38 119zM415 150l-133 167q-51 -37 -68.5 -59.5t-17.5 -62.5q0 -31 25.5 -63.5t81.5 -32.5t112 51z" />
    <glyph glyph-name="quotesingle" unicode="'" horiz-adv-x="240" 
d="M71 452v274h99v-274h-99z" />
    <glyph glyph-name="parenleft" unicode="(" horiz-adv-x="337" 
d="M213 742h104q-67 -115 -101.5 -224.5t-34.5 -253.5q0 -142 35 -250t101 -224h-104q-177 238 -177 474q0 241 177 478z" />
    <glyph glyph-name="parenright" unicode=")" horiz-adv-x="337" 
d="M20 742h104q177 -238 177 -474q0 -241 -177 -478h-104q67 115 101.5 224.5t34.5 253.5q0 142 -35 250t-101 224z" />
    <glyph glyph-name="asterisk" unicode="*" horiz-adv-x="393" 
d="M341 640l25 -74l-106 -32l69 -98l-63 -45l-69 92l-70 -92l-63 45l68 98l-105 32l24 74l103 -35v121h86v-120z" />
    <glyph glyph-name="plus" unicode="+" horiz-adv-x="590" 
d="M238 312v200h113v-200h199v-113h-199v-199h-113v199h-198v113h198z" />
    <glyph glyph-name="comma" unicode="," horiz-adv-x="280" 
d="M64 0v147h151v-127q0 -87 -39 -129.5t-111 -60.5h-1v54q25 8 39.5 17t29 34t16.5 65h-85z" />
    <glyph glyph-name="hyphen" unicode="-" horiz-adv-x="362" 
d="M322 312v-113h-282v113h282z" />
    <glyph glyph-name="hyphen" unicode="&#xad;" horiz-adv-x="362" 
d="M322 312v-113h-282v113h282z" />
    <glyph glyph-name="period" unicode="." horiz-adv-x="280" 
d="M215 147v-147h-151v147h151z" />
    <glyph glyph-name="slash" unicode="/" horiz-adv-x="280" 
d="M314 745l-230 -764h-118l230 764h118z" />
    <glyph glyph-name="zero" unicode="0" 
d="M33 349q0 188 61.5 278t188.5 90t186.5 -89.5t59.5 -278.5q0 -188 -60.5 -278.5t-187.5 -90.5t-187.5 90.5t-60.5 278.5zM178 349q0 -142 22 -199t81 -57t81 57t22 199t-21.5 198.5t-81.5 56.5t-81.5 -56.5t-21.5 -198.5z" />
    <glyph glyph-name="one" unicode="1" horiz-adv-x="561" 
d="M69 494v99h21q92 0 132 37t43 87h116v-717h-141v494h-171z" />
    <glyph glyph-name="two" unicode="2" 
d="M172 464h-137q0 66 19 115.5t44.5 74.5t61 40.5t60 19t49.5 3.5q107 0 176.5 -60t69.5 -166q0 -58 -24 -105.5t-52.5 -73t-72.5 -54.5q-142 -93 -162 -133h311v-125h-488q2 33 4 51.5t12 51.5t26 58t47.5 58t76.5 66q49 35 70 51t48.5 39.5t37.5 39.5t17.5 36.5t7.5 44.5
q0 40 -25.5 71t-73.5 31q-35 0 -57.5 -12.5t-31.5 -36t-11.5 -41.5t-2.5 -44z" />
    <glyph glyph-name="three" unicode="3" 
d="M171 486h-131q0 106 60 168.5t177 62.5q39 0 76 -10.5t71 -32.5t54.5 -62.5t20.5 -94.5q0 -50 -25.5 -85.5t-60.5 -51.5v-2q13 -4 28.5 -12.5t35 -26.5t32 -51t12.5 -76q0 -102 -68 -166.5t-176 -64.5q-27 0 -52.5 3t-63.5 17t-65.5 38t-47.5 70.5t-20 110.5h138l-1 -1
q0 -19 3.5 -36.5t13 -39.5t32.5 -35.5t56 -13.5q46 0 76 30.5t30 87.5q0 28 -11 48t-26 30.5t-39.5 16t-42 6.5t-42.5 1v101h23q120 0 120 97q0 12 -3.5 25.5t-12 29.5t-28 26.5t-46.5 10.5q-97 0 -97 -118z" />
    <glyph glyph-name="four" unicode="4" 
d="M134 272h176q0 77 1 147.5t1.5 111.5t0.5 46h-2zM291 717h160v-445h80v-113h-80v-159h-141v159h-282v122z" />
    <glyph glyph-name="five" unicode="5" 
d="M99 704h394v-119h-292l-25 -155q56 39 128 39q38 0 75 -13.5t69.5 -40t52.5 -72.5t20 -105q0 -32 -6.5 -64.5t-24.5 -68t-46 -62.5t-75.5 -44.5t-107.5 -17.5q-92 0 -160 54.5t-73 156.5h141q10 -98 99 -98q50 0 79 37.5t29 96.5q0 53 -26.5 90.5t-78.5 37.5
q-67 0 -95 -51l-126 6z" />
    <glyph glyph-name="six" unicode="6" 
d="M511 535h-140q-7 69 -83 69q-107 0 -118 -198l2 -2q43 59 134 59q105 0 162 -66.5t57 -154.5q0 -117 -65 -189t-169 -72q-63 0 -110 21t-75 54t-45 81.5t-23 96.5t-6 107q0 35 1.5 64t8 69.5t17 72t30.5 65t47.5 55.5t69 36t92.5 14q91 0 152 -53t61 -129zM384 230
q0 62 -31.5 91t-71.5 29q-45 0 -76.5 -30t-31.5 -93q0 -59 30.5 -96t81.5 -37q43 0 71 34t28 102z" />
    <glyph glyph-name="seven" unicode="7" 
d="M25 704h509v-109q-35 -38 -69 -83.5t-79.5 -122.5t-76.5 -179t-37 -210h-146q6 100 37 199.5t75 175.5t79 124.5t65 79.5h-357v125z" />
    <glyph glyph-name="eight" unicode="8" 
d="M282 426q41 0 64.5 24.5t23.5 64.5t-24 64.5t-59 24.5q-47 0 -72 -24.5t-25 -64.5q0 -35 24.5 -62t67.5 -27zM529 213q0 -37 -12.5 -75t-39.5 -74.5t-78 -59.5t-118 -23q-66 0 -116 20t-77.5 53t-41 69.5t-13.5 75.5q0 129 109 181q-87 44 -87 141q0 89 63.5 142.5
t159.5 53.5q106 0 166.5 -54t60.5 -133q0 -101 -83 -145q55 -27 81 -66t26 -106zM384 207q0 44 -25.5 78t-79.5 34q-42 0 -71.5 -28.5t-29.5 -82.5q0 -52 28 -83t76 -31q51 0 76.5 34.5t25.5 78.5z" />
    <glyph glyph-name="nine" unicode="9" 
d="M172 479q0 -131 106 -131q42 0 73 30.5t31 89.5q0 63 -27 98t-81 35q-38 0 -70 -27t-32 -95zM45 165h140v-1q11 -70 83 -70q50 0 84 47.5t34 151.5l-2 2q-40 -60 -136 -60q-100 0 -158.5 65t-58.5 159q0 127 66.5 192.5t176.5 65.5q253 0 253 -369q0 -100 -22 -174
t-60 -114.5t-82.5 -59.5t-95.5 -19q-92 0 -152.5 49.5t-69.5 134.5z" />
    <glyph glyph-name="colon" unicode=":" horiz-adv-x="337" 
d="M244 147v-147h-151v147h151zM244 517v-147h-151v147h151z" />
    <glyph glyph-name="semicolon" unicode=";" horiz-adv-x="337" 
d="M93 0v147h151v-127q0 -87 -39 -129.5t-111 -60.5h-1v54q25 8 39.5 17t29 34t16.5 65h-85zM244 517v-147h-151v147h151z" />
    <glyph glyph-name="less" unicode="&#x3c;" horiz-adv-x="590" 
d="M552 101v-109l-513 220v89l513 219v-109l-367 -155z" />
    <glyph glyph-name="equal" unicode="=" horiz-adv-x="590" 
d="M549 424v-113h-509v113h509zM549 199v-113h-509v113h509z" />
    <glyph glyph-name="greater" unicode="&#x3e;" horiz-adv-x="590" 
d="M38 101l367 155l-367 155v109l513 -219v-89l-513 -220v109z" />
    <glyph glyph-name="question" unicode="?" horiz-adv-x="617" 
d="M387 210h-147q0 76 20 117t87 88q63 44 63 100q0 53 -29.5 76.5t-68.5 23.5q-32 0 -54 -10.5t-33 -30t-15.5 -36t-6.5 -39.5v-1h-142q0 63 22 110.5t58.5 74t77 39t84.5 12.5q25 0 51 -3t65.5 -16t69 -34.5t51 -63t21.5 -97.5q0 -59 -28.5 -99.5t-93.5 -86.5
q-33 -23 -42.5 -46t-9.5 -78zM387 142v-142h-147v142h147z" />
    <glyph glyph-name="at" unicode="@" horiz-adv-x="985" 
d="M587 380q0 38 -22.5 62t-58.5 24q-50 0 -84 -43t-34 -93q0 -40 21 -65t58 -25q51 0 85.5 44t34.5 96zM617 498l13 54h89q-4 -20 -21.5 -97.5t-30.5 -137t-13 -65.5q0 -21 15 -21q43 0 78.5 49.5t35.5 127.5q0 120 -77.5 188t-198.5 68q-129 0 -208.5 -86t-79.5 -217
q0 -134 85 -216.5t217 -82.5q125 0 212 82h90q-52 -78 -132.5 -120.5t-175.5 -42.5q-165 0 -280.5 109.5t-115.5 272.5q0 161 114.5 271.5t275.5 110.5q143 0 249.5 -87.5t106.5 -224.5q0 -76 -30 -136.5t-73.5 -92.5t-84 -48.5t-70.5 -16.5q-23 0 -39.5 13.5t-17.5 39.5
l-2 1q-50 -54 -107 -54q-65 0 -113.5 52.5t-48.5 123.5q0 99 61 174t155 75q82 0 122 -66z" />
    <glyph glyph-name="A" unicode="A" horiz-adv-x="730" 
d="M279 726h175l255 -726h-164l-47 150h-267l-51 -150h-159zM364 562l-93 -287h194l-99 287h-2z" />
    <glyph glyph-name="B" unicode="B" horiz-adv-x="718" 
d="M70 0v726h358q63 0 109 -18t69 -47.5t33.5 -59t10.5 -60.5q0 -48 -17.5 -82t-33 -45.5t-37.5 -22.5q111 -41 111 -174q0 -24 -4 -47t-21.5 -55.5t-47 -56.5t-86 -41t-132.5 -17h-312zM221 320v-195h184q117 0 117 107q0 44 -31.5 66t-77.5 22h-192zM221 601v-159h177
q48 0 77.5 20t29.5 61q0 42 -28 60t-83 18h-173z" />
    <glyph glyph-name="C" unicode="C" horiz-adv-x="730" 
d="M691 488h-151q-5 19 -9.5 31t-16.5 33t-27.5 33t-43.5 22t-64 10q-31 0 -60 -12t-58 -39t-47 -80t-18 -126q0 -106 46.5 -178.5t136.5 -72.5q63 0 105.5 36.5t55.5 103.5h151q-23 -124 -103 -196t-212 -72q-149 0 -240 99t-91 282q0 184 93 283.5t240 99.5
q77 0 138.5 -24.5t97 -64t55 -82.5t22.5 -86z" />
    <glyph glyph-name="D" unicode="D" horiz-adv-x="731" 
d="M70 0v726h320q70 0 124.5 -23t86 -58.5t51.5 -83.5t27 -91.5t7 -89.5q0 -50 -8 -99t-29.5 -101t-54.5 -91t-87 -64t-123 -25h-314zM218 601v-476h148q44 0 77 21t51.5 57t27.5 77.5t9 88.5q0 61 -11.5 106t-28 68.5t-41 37t-43.5 17t-43 3.5h-146z" />
    <glyph glyph-name="E" unicode="E" horiz-adv-x="667" 
d="M70 726h536v-125h-385v-150h353v-125h-353v-201h401v-125h-552v726z" />
    <glyph glyph-name="F" unicode="F" horiz-adv-x="613" 
d="M70 726h517v-125h-366v-150h320v-125h-320v-326h-151v726z" />
    <glyph glyph-name="G" unicode="G" horiz-adv-x="790" 
d="M417 269v122h303v-391h-101l-15 91q-24 -30 -45.5 -50t-70.5 -40t-110 -20q-140 0 -236.5 99t-96.5 281q0 76 21.5 143.5t63 122t110.5 86.5t157 32q79 0 142 -24t99 -61.5t56 -78.5t23 -81h-151q0 31 -43.5 74t-114.5 43q-90 0 -151 -63t-61 -193q0 -71 18.5 -122.5
t50.5 -78.5t67.5 -39t77.5 -12q18 0 38.5 5t49.5 19.5t53 49.5t35 86h-169z" />
    <glyph glyph-name="H" unicode="H" horiz-adv-x="725" 
d="M221 726v-275h283v275h151v-726h-151v326h-283v-326h-151v726h151z" />
    <glyph glyph-name="I" unicode="I" horiz-adv-x="291" 
d="M221 726v-726h-151v726h151z" />
    <glyph glyph-name="J" unicode="J" horiz-adv-x="561" 
d="M340 726h151v-516q0 -229 -225 -229q-49 0 -87.5 9.5t-64 23.5t-43 39t-26.5 46.5t-13.5 56t-5.5 57t-1 60.5h141q0 -96 15.5 -133t71.5 -37q54 0 70.5 28t16.5 79v516z" />
    <glyph glyph-name="K" unicode="K" horiz-adv-x="716" 
d="M221 726v-295l277 295h196l-296 -297l313 -429h-195l-224 319l-71 -73v-246h-151v726h151z" />
    <glyph glyph-name="L" unicode="L" horiz-adv-x="611" 
d="M221 726v-601h362v-125h-513v726h151z" />
    <glyph glyph-name="M" unicode="M" horiz-adv-x="842" 
d="M70 726h221l131 -572h2l129 572h219v-726h-141v607h-1l-136 -607h-149l-132 607h-2v-607h-141v726z" />
    <glyph glyph-name="N" unicode="N" horiz-adv-x="731" 
d="M70 726h160l288 -505h2v505h141v-726h-152l-295 518h-3v-518h-141v726z" />
    <glyph glyph-name="O" unicode="O" horiz-adv-x="786" 
d="M45 363q0 70 14.5 128t37.5 96.5t55 68.5t63.5 46t67 26.5t61 13.5t49.5 3t49.5 -3t61 -13.5t67 -26.5t63.5 -46t55 -68.5t37.5 -96.5t14.5 -128t-14.5 -128t-37.5 -96.5t-55 -68.5t-63.5 -46t-67 -26.5t-61 -13.5t-49.5 -3t-49.5 3t-61 13.5t-67 26.5t-63.5 46t-55 68.5
t-37.5 96.5t-14.5 128zM196 363q0 -72 18.5 -124.5t49.5 -79t63 -38.5t66 -12t66 12t63 38.5t49.5 79t18.5 124.5t-18.5 124.5t-49.5 79t-63 38.5t-66 12t-66 -12t-63 -38.5t-49.5 -79t-18.5 -124.5z" />
    <glyph glyph-name="P" unicode="P" horiz-adv-x="671" 
d="M221 262v-262h-151v726h332q105 0 164.5 -62t59.5 -170q0 -23 -5 -49.5t-20.5 -60t-39.5 -60t-67.5 -44.5t-98.5 -18h-174zM221 601v-214h141q113 0 113 113q0 53 -31.5 77t-101.5 24h-121z" />
    <glyph glyph-name="Q" unicode="Q" horiz-adv-x="786" 
d="M402 197l78 81l77 -71q33 61 33 155q0 72 -18.5 124.5t-49.5 79.5t-63 39t-66 12t-66 -12t-63 -39t-49.5 -79.5t-18.5 -124.5q0 -58 13 -104t32.5 -73t46.5 -45t52.5 -24.5t52.5 -6.5q45 0 82 19zM744 29l-79 -82l-86 82q-81 -48 -186 -48q-24 0 -49.5 3t-61 13t-67 26.5
t-63.5 46t-55 68t-37.5 96.5t-14.5 128t14.5 128.5t37.5 97t55 68t63.5 46t67 27t61 13.5t49.5 3t49.5 -3t61 -13.5t67 -27t63.5 -46t55 -68t37.5 -97t14.5 -128.5q0 -163 -75 -258z" />
    <glyph glyph-name="R" unicode="R" horiz-adv-x="712" 
d="M221 284v-284h-151v726h370q55 0 97.5 -15.5t66 -38.5t38.5 -52.5t20 -53t5 -45.5q0 -62 -29 -108.5t-82 -64.5q34 -15 51 -29.5t28.5 -52t11.5 -102.5q0 -85 5 -110t28 -34v-20h-168q-16 56 -16 147q0 43 -2.5 64t-14 40.5t-35.5 26t-66 6.5h-157zM221 601v-195h178
q60 0 88.5 23.5t28.5 75.5q0 38 -23.5 67t-83.5 29h-188z" />
    <glyph glyph-name="S" unicode="S" horiz-adv-x="673" 
d="M39 224h145q0 -18 6 -36t21 -38t48 -32t79 -12q152 0 152 94q0 17 -7 30t-16.5 21t-29.5 16t-35 12t-44 11l-146 36q-162 39 -162 196q0 27 6 54t25 58.5t48 55t81 39.5t119 16q79 0 137 -23.5t88 -61t43.5 -75.5t13.5 -75h-145q-2 18 -7 32t-18.5 34.5t-45 32
t-77.5 11.5q-51 0 -89 -21t-38 -66q0 -26 14.5 -43.5t28 -22.5t34.5 -10l177 -43q42 -11 72 -23.5t59 -34t44 -56t15 -81.5q0 -62 -24.5 -108.5t-57.5 -70.5t-76.5 -38t-72.5 -17.5t-55 -3.5q-75 0 -133 17t-90.5 42.5t-53 59.5t-27 63.5t-6.5 60.5z" />
    <glyph glyph-name="T" unicode="T" horiz-adv-x="617" 
d="M384 601v-601h-151v601h-219v125h589v-125h-219z" />
    <glyph glyph-name="U" unicode="U" horiz-adv-x="717" 
d="M70 726h151v-472q0 -72 36 -108.5t93 -36.5q146 0 146 138v479h151v-470q0 -140 -76.5 -207.5t-217.5 -67.5q-52 0 -97 11.5t-89.5 39t-70.5 82.5t-26 132v480z" />
    <glyph glyph-name="V" unicode="V" horiz-adv-x="673" 
d="M19 726h162l156 -550h2l158 550h157l-246 -726h-145z" />
    <glyph glyph-name="W" unicode="W" horiz-adv-x="954" 
d="M16 726h162q96 -410 115 -531h2q35 203 101 531h161q87 -406 108 -531h2q20 115 118 531h154l-204 -726h-146q-79 375 -112 566h-2q-19 -120 -112 -566h-142z" />
    <glyph glyph-name="X" unicode="X" horiz-adv-x="673" 
d="M27 726h181l129 -235l132 235h175l-221 -349l236 -377h-185l-137 248l-146 -248h-177l234 371z" />
    <glyph glyph-name="Y" unicode="Y" horiz-adv-x="673" 
d="M22 726h172l150 -316l143 316h172l-243 -452v-274h-151v274z" />
    <glyph glyph-name="Z" unicode="Z" horiz-adv-x="618" 
d="M35 726h557v-128l-385 -470h385v-128h-567v129l375 469h-365v128z" />
    <glyph glyph-name="bracketleft" unicode="[" horiz-adv-x="336" 
d="M64 730h248v-97h-125v-734h125v-97h-248v928z" />
    <glyph glyph-name="backslash" unicode="\" horiz-adv-x="280" 
d="M-34 745h118l230 -764h-118z" />
    <glyph glyph-name="bracketright" unicode="]" horiz-adv-x="336" 
d="M24 730h248v-928h-248v97h125v734h-125v97z" />
    <glyph glyph-name="asciicircum" unicode="^" horiz-adv-x="590" 
d="M173 326h-110l182 379h100l182 -379h-111l-121 266z" />
    <glyph glyph-name="underscore" unicode="_" 
d="M562 -126h-562v50h562v-50z" />
    <glyph glyph-name="grave" unicode="`" horiz-adv-x="336" 
d="M125 610l-148 147h155l95 -147h-102z" />
    <glyph glyph-name="a" unicode="a" horiz-adv-x="567" 
d="M188 364h-136q6 59 28 98.5t58 58t71.5 25t82.5 6.5q34 0 66.5 -6t68 -21.5t57.5 -48.5t22 -80v-291q0 -72 31 -83v-22h-152q-10 32 -13 64q-22 -23 -39 -36.5t-54 -27.5t-81 -14q-67 0 -115 39.5t-48 117.5q0 87 69.5 132t181.5 54q82 7 82 47q0 63 -93 63
q-47 0 -65 -21.5t-22 -53.5zM368 262q-22 -18 -96 -29q-47 -8 -71.5 -24.5t-24.5 -56.5q0 -34 20 -49.5t46 -15.5q49 0 87.5 29.5t38.5 76.5v69z" />
    <glyph glyph-name="b" unicode="b" horiz-adv-x="618" 
d="M317 430q-63 0 -92 -47t-29 -118q0 -37 9.5 -71.5t37.5 -63t70 -28.5q63 0 94 44.5t31 110.5q0 173 -121 173zM201 726v-258h3q54 84 155 84q96 0 160 -70.5t64 -203.5q0 -122 -57.5 -207t-169.5 -85q-107 0 -153 82h-2v-68h-141v726h141z" />
    <glyph glyph-name="c" unicode="c" horiz-adv-x="564" 
d="M386 196h142q-2 -20 -8.5 -43t-23.5 -54t-42.5 -55t-70 -41t-100.5 -17q-58 0 -103 17.5t-72 44t-44 63.5t-23 71.5t-6 71.5q0 138 63 218t194 80q36 0 72 -9.5t73 -30.5t62 -64t30 -102h-143q-15 87 -94 87q-60 0 -86 -47t-26 -109q0 -20 1 -33.5t3.5 -37t10 -39.5
t18.5 -32t30.5 -24.5t45.5 -8.5q47 0 72 33t25 61z" />
    <glyph glyph-name="d" unicode="d" horiz-adv-x="617" 
d="M557 726v-726h-138v68h-2q-46 -82 -155 -82q-76 0 -129 42.5t-75.5 106t-22.5 140.5q0 133 64.5 205t159.5 72q101 0 155 -84h2v258h141zM301 430q-63 0 -92 -47t-29 -118q0 -37 9.5 -71.5t37.5 -63t70 -28.5q63 0 94 44.5t31 110.5q0 173 -121 173z" />
    <glyph glyph-name="e" unicode="e" horiz-adv-x="580" 
d="M394 158h145q-26 -89 -91.5 -130.5t-144.5 -41.5q-268 0 -268 294q0 26 4 54t19.5 69t41.5 72.5t76 54t117 22.5q118 0 185 -67t67 -201v-53h-365q0 -132 123 -132q31 0 57 16t34 43zM180 323h220q-5 59 -37 86t-72 27q-98 0 -111 -113z" />
    <glyph glyph-name="f" unicode="f" horiz-adv-x="337" 
d="M229 437v-437h-141v437h-78v101h78v43q0 153 158 153h73v-116h-40q-34 0 -42 -11.5t-8 -47.5v-21h93v-101h-93z" />
    <glyph glyph-name="g" unicode="g" horiz-adv-x="617" 
d="M422 538h135v-509q0 -26 -1 -44t-6.5 -46.5t-16 -49t-30.5 -43.5t-48 -37.5t-71 -24t-98 -9.5q-92 0 -161 41t-73 121h153q4 -17 10 -27t28.5 -19t60.5 -9q118 0 118 128v67h-4q-51 -91 -146 -91q-102 0 -169.5 75.5t-67.5 211.5q0 133 66.5 206t161.5 73q111 0 157 -94
h2v80zM301 430q-63 0 -92 -47t-29 -118q0 -37 9.5 -71.5t37.5 -63t70 -28.5q63 0 94 44.5t31 110.5q0 173 -121 173z" />
    <glyph glyph-name="h" unicode="h" horiz-adv-x="605" 
d="M201 726v-258h2q14 35 57.5 59.5t98.5 24.5q82 0 134 -47t52 -133v-372h-141v327q0 20 -2 34t-10 33t-28 29t-52 10q-49 0 -80 -32.5t-31 -92.5v-308h-141v726h141z" />
    <glyph glyph-name="i" unicode="i" horiz-adv-x="261" 
d="M201 538v-538h-141v538h141zM201 732v-131h-141v131h141z" />
    <glyph glyph-name="j" unicode="j" horiz-adv-x="261" 
d="M60 538h141v-594q0 -52 -11.5 -84t-39.5 -48.5t-63 -22t-94 -5.5v113q41 0 54 9t13 41v591zM201 732v-131h-141v131h141z" />
    <glyph glyph-name="k" unicode="k" 
d="M201 726v-392l178 204h173l-189 -208l194 -330h-169l-128 231l-59 -61v-170h-141v726h141z" />
    <glyph glyph-name="l" unicode="l" horiz-adv-x="261" 
d="M201 726v-726h-141v726h141z" />
    <glyph glyph-name="m" unicode="m" horiz-adv-x="889" 
d="M60 538h136v-79h2q48 93 152 93q56 0 88 -20t62 -66q56 86 143 86q82 0 134 -47t52 -133v-372h-141v327q0 106 -76 106q-97 0 -97 -111v-322h-141v323q0 110 -85 110q-88 0 -88 -103v-330h-141v538z" />
    <glyph glyph-name="n" unicode="n" horiz-adv-x="605" 
d="M60 538h135v-79h2q55 93 162 93q82 0 134 -47t52 -133v-372h-141v327q0 20 -2 34t-10 33t-28 29t-52 10q-49 0 -80 -32.5t-31 -92.5v-308h-141v538z" />
    <glyph glyph-name="o" unicode="o" horiz-adv-x="619" 
d="M310 552q116 0 195 -72t79 -210t-79 -211t-195 -73t-195.5 72.5t-79.5 210.5t79.5 210.5t195.5 72.5zM310 433q-39 0 -66 -15t-40 -41t-18.5 -52t-5.5 -55q0 -30 5.5 -55.5t18.5 -52t40 -42t66 -15.5t66 15.5t40 41.5t18 51.5t5 55.5t-5 55.5t-18 51.5t-40 41.5t-66 15.5
z" />
    <glyph glyph-name="p" unicode="p" horiz-adv-x="618" 
d="M317 430q-63 0 -92 -47t-29 -118q0 -37 9.5 -71.5t37.5 -63t70 -28.5q63 0 94 44.5t31 110.5q0 173 -121 173zM196 538v-78h2q16 26 32 43.5t50 33t78 15.5q95 0 160 -73t65 -206q0 -57 -13.5 -107t-40 -91t-71.5 -65t-103 -24q-102 0 -151 83l-3 1v-286h-141v754h136z
" />
    <glyph glyph-name="q" unicode="q" horiz-adv-x="618" 
d="M301 430q-63 0 -92 -47t-29 -118q0 -37 9.5 -71.5t37.5 -63t70 -28.5q63 0 94 44.5t31 110.5q0 173 -121 173zM422 538h136v-754h-141v286l-3 -1q-49 -83 -151 -83q-58 0 -103 24t-71.5 65t-40 91t-13.5 107q0 133 65 206t160 73q44 0 78 -15.5t50 -33t32 -43.5h2v78z
" />
    <glyph glyph-name="r" unicode="r" horiz-adv-x="389" 
d="M60 538h136v-93h2q14 25 24 40t27.5 32.5t41 26t54.5 8.5q16 0 28 -2v-144q-20 3 -41 3q-131 0 -131 -127v-282h-141v538z" />
    <glyph glyph-name="s" unicode="s" horiz-adv-x="563" 
d="M512 374h-138q-3 16 -7 26t-13.5 21.5t-28.5 17.5t-46 6q-87 0 -87 -53q0 -23 34.5 -36t84 -22t99 -23.5t84 -49.5t34.5 -90q0 -45 -16.5 -79.5t-41.5 -54t-58.5 -31.5t-61.5 -16t-57 -4q-49 0 -92.5 9.5t-82 29.5t-61 58t-22.5 89h145q0 -79 117 -79q49 0 69.5 18
t20.5 38q0 21 -24.5 34t-61.5 19t-80.5 17t-80.5 25.5t-61.5 47.5t-24.5 80q0 32 11 62t34 57.5t67.5 44t104.5 16.5q228 0 241 -178z" />
    <glyph glyph-name="t" unicode="t" horiz-adv-x="337" 
d="M83 682h141v-145h88v-101h-88v-292q0 -26 9.5 -34.5t49.5 -8.5q23 0 29 2v-106q-27 -3 -66 -3q-98 0 -130.5 28.5t-32.5 87.5v326h-72v101h72v145z" />
    <glyph glyph-name="u" unicode="u" horiz-adv-x="603" 
d="M60 538h141v-334q0 -99 92 -99q43 0 76 29t33 94v310h141v-538h-135v76h-2q-51 -90 -164 -90q-83 0 -132.5 49.5t-49.5 148.5v354z" />
    <glyph glyph-name="v" unicode="v" 
d="M13 538h151l114 -397h2l118 397h151l-194 -538h-149z" />
    <glyph glyph-name="w" unicode="w" horiz-adv-x="786" 
d="M10 538h151l84 -387h1l76 387h143l81 -387h1l84 387h146l-155 -538h-145l-84 393h-2l-84 -393h-145z" />
    <glyph glyph-name="x" unicode="x" 
d="M22 538h172l91 -157l89 157h167l-177 -264l183 -274h-175l-93 162l-93 -162h-171l183 274z" />
    <glyph glyph-name="y" unicode="y" 
d="M10 538h158l115 -396h2l110 396h150l-185 -528q-21 -60 -33.5 -91.5t-30 -62.5t-36 -44t-45 -20.5t-63.5 -7.5q-24 0 -64 2v113q12 -2 27 -2q44 0 64 14.5t29 66.5z" />
    <glyph glyph-name="z" unicode="z" horiz-adv-x="504" 
d="M39 538h435v-116l-279 -309h290v-113h-465v110l283 315h-264v113z" />
    <glyph glyph-name="braceleft" unicode="{" horiz-adv-x="393" 
d="M369 730v-89h-46q-57 0 -57 -65v-198q0 -29 -13 -52t-32.5 -34.5t-37 -17.5t-32.5 -7v-2q115 -10 115 -105v-198q0 -71 57 -71h46v-89h-84q-54 0 -98 36.5t-44 102.5v202q0 41 -31.5 59t-63.5 18v93q32 0 63.5 17.5t31.5 58.5v202q0 66 44 102.5t98 36.5h84z" />
    <glyph glyph-name="bar" unicode="|" horiz-adv-x="282" 
d="M197 745v-764h-113v764h113z" />
    <glyph glyph-name="braceright" unicode="}" horiz-adv-x="393" 
d="M24 641v89h84q54 0 97.5 -36t43.5 -102v-202q0 -28 19 -47t38.5 -24.5t38.5 -6.5v-92q-32 0 -64 -17.5t-32 -58.5v-202q0 -66 -43.5 -103t-97.5 -37h-84v89h46q56 0 56 67v198q0 31 13 53.5t33.5 33.5t37 16t32.5 6v2q-15 1 -32.5 7t-37.5 17.5t-33 33.5t-13 51v198
q0 67 -56 67h-46z" />
    <glyph glyph-name="asciitilde" unicode="~" horiz-adv-x="590" 
d="M492 347l36 -91q-20 -28 -33 -43t-38.5 -29.5t-54.5 -14.5q-39 0 -106 35t-113 35q-51 0 -85 -74l-36 91q46 87 126 87q42 0 115.5 -35t99.5 -35q27 0 46.5 19t42.5 55z" />
    <glyph glyph-name="sterling" unicode="&#xa3;" 
d="M380 386v-61h-120q5 -30 5 -54q0 -47 -28 -90.5t-75 -75.5l2 -3q64 27 114 27q38 0 77 -13t48 -13q19 0 51 12t51 25l42 -110q-77 -46 -154 -46q-35 0 -102 20.5t-94 20.5q-31 0 -110 -36l-55 98q24 8 68.5 54.5t44.5 93.5q0 44 -24 90h-93v61h59q-26 56 -33.5 81.5
t-7.5 61.5q0 23 7.5 48t25.5 52t44.5 48.5t69 35t94.5 13.5q43 0 83 -11t77.5 -36t60 -73t22.5 -114h-132q-9 62 -30.5 91.5t-81.5 29.5q-52 0 -75.5 -30.5t-23.5 -62.5q0 -27 48 -134h145z" />
    <glyph glyph-name="currency" unicode="&#xa4;" 
d="M281 247q47 0 76 32.5t29 81.5t-29 80.5t-76 31.5t-75 -31.5t-28 -80.5t28.5 -81.5t74.5 -32.5zM-3 576l67 67l99 -99q54 33 118 33q68 0 118 -33l99 99l67 -67l-99 -99q33 -50 33 -116q0 -68 -33 -118l99 -99l-67 -67l-99 99q-50 -33 -118 -33q-64 0 -118 33l-99 -99
l-67 67l99 99q-31 51 -31 118t31 116z" />
    <glyph glyph-name="brokenbar" unicode="&#xa6;" horiz-adv-x="282" 
d="M84 -19v293h113v-293h-113zM84 452v293h113v-293h-113z" />
    <glyph glyph-name="section" unicode="&#xa7;" 
d="M484 550h-128q-5 77 -79 77q-34 0 -53.5 -17t-19.5 -39q0 -34 39 -54l163 -81q59 -30 90 -66.5t31 -98.5q0 -27 -24.5 -70.5t-71.5 -64.5q63 -52 63 -130q0 -91 -64 -141.5t-154 -50.5q-51 0 -91 15t-62 37t-36 49.5t-18.5 48.5t-4.5 39h133q9 -82 88 -82q40 0 57 24
t17 48t-14 38.5t-46 30.5l-154 79q-58 29 -84 64t-26 98q0 80 93 134q-52 47 -52 117q0 74 54 127t148 53q38 0 71.5 -9t64 -28.5t49.5 -57t21 -89.5zM197 387q-21 -7 -32 -26t-11 -32q0 -39 46 -63l159 -85q43 24 43 67q0 35 -57 64z" />
    <glyph glyph-name="copyright" unicode="&#xa9;" horiz-adv-x="745" 
d="M757 364q0 -116 -54.5 -205t-141 -133.5t-188.5 -44.5t-188.5 44.5t-141 133.5t-54.5 205t54.5 204.5t140.5 132.5t189 44t189 -44t140.5 -132.5t54.5 -204.5zM373 657q-116 0 -195 -82t-79 -211q0 -130 79 -212.5t194 -82.5q113 0 194 83t81 212t-80 211t-194 82z
M478 306h91q-12 -74 -62.5 -116t-118.5 -42q-94 0 -152 62.5t-58 156.5q0 96 56.5 157t151.5 61q70 0 118.5 -40t60.5 -114h-87q-6 33 -31.5 49.5t-60.5 16.5q-49 0 -76.5 -34.5t-27.5 -93.5q0 -57 30 -95t76 -38q39 0 63 18t27 52z" />
    <glyph glyph-name="guillemotleft" unicode="&#xab;" 
d="M258 372l-101 -89l101 -89v-117l-169 145v122l169 145v-117zM473 372l-101 -89l101 -89v-117l-169 145v122l169 145v-117z" />
    <glyph glyph-name="logicalnot" unicode="&#xac;" horiz-adv-x="590" 
d="M436 0v199h-396v113h509v-312h-113z" />
    <glyph glyph-name="registered" unicode="&#xae;" horiz-adv-x="745" 
d="M310 331v-173h-88v411h153q84 0 126.5 -28t42.5 -96q0 -100 -99 -107l105 -180h-104l-95 173h-41zM310 499v-98h77q33 0 48 10.5t15 42.5q0 45 -79 45h-61zM756 363q0 -116 -54 -204.5t-140 -133t-189 -44.5q-159 0 -271.5 104t-112.5 278t112.5 278t271.5 104
q103 0 189 -44.5t140 -133t54 -204.5zM646 363q0 129 -80 211t-193 82q-116 0 -195 -82t-79 -211q0 -130 79 -212t195 -82q113 0 193 82.5t80 211.5z" />
    <glyph glyph-name="degree" unicode="&#xb0;" horiz-adv-x="404" 
d="M58 575q0 60 42 102.5t102 42.5t102.5 -42t42.5 -102t-42.5 -102.5t-102.5 -42.5t-102 42t-42 102zM202 663q-36 0 -61.5 -26t-25.5 -62t25.5 -61.5t61.5 -25.5t62 25.5t26 61.5t-26 62t-62 26z" />
    <glyph glyph-name="plusminus" unicode="&#xb1;" horiz-adv-x="590" 
d="M238 451v127h113v-127h199v-113h-199v-127h-113v127h-198v113h198zM40 66v113h510v-113h-510z" />
    <glyph glyph-name="mu" unicode="&#xb5;" horiz-adv-x="617" 
d="M67 538h141v-334q0 -99 92 -99q43 0 76 29t33 94v310h141v-538h-135v76h-2q-23 -42 -58 -66t-67 -24q-54 0 -80 26v-221h-141v747z" />
    <glyph glyph-name="mu" unicode="&#x3bc;" horiz-adv-x="617" 
d="M67 538h141v-334q0 -99 92 -99q43 0 76 29t33 94v310h141v-538h-135v76h-2q-23 -42 -58 -66t-67 -24q-54 0 -80 26v-221h-141v747z" />
    <glyph glyph-name="paragraph" unicode="&#xb6;" 
d="M216 -192v543q-106 0 -165 46.5t-59 128.5q0 100 65 141t182 41h306v-900h-113v814h-103v-814h-113z" />
    <glyph glyph-name="periodcentered" unicode="&#xb7;" horiz-adv-x="280" 
d="M58 256q0 34 24 58t58 24t58 -24t24 -58t-23.5 -58t-58.5 -24t-58.5 24t-23.5 58z" />
    <glyph glyph-name="periodcentered" unicode="&#x2219;" horiz-adv-x="280" 
d="M58 256q0 34 24 58t58 24t58 -24t24 -58t-23.5 -58t-58.5 -24t-58.5 24t-23.5 58z" />
    <glyph glyph-name="guillemotright" unicode="&#xbb;" 
d="M405 283l-101 89v117l169 -145v-122l-169 -145v117zM190 283l-101 89v117l169 -145v-122l-169 -145v117z" />
    <glyph glyph-name="afii10023" unicode="&#x401;" horiz-adv-x="667" 
d="M70 726h536v-125h-385v-150h353v-125h-353v-201h401v-125h-552v726zM310 924v-116h-127v116h127zM519 924v-116h-127v116h127z" />
    <glyph glyph-name="afii10051" unicode="&#x402;" horiz-adv-x="826" 
d="M384 601v-159q54 9 149 9q108 0 178 -62t70 -167t-69.5 -163.5t-181.5 -58.5h-59v125h44q53 0 84 29.5t31 75.5q0 47 -31 71.5t-84 24.5q-68 0 -131 -9v-317h-151v601h-219v125h589v-125h-219z" />
    <glyph glyph-name="afii10052" unicode="&#x403;" horiz-adv-x="613" 
d="M70 726h517v-125h-366v-601h-151v726zM493 937l-148 -147h-102l95 147h155z" />
    <glyph glyph-name="afii10053" unicode="&#x404;" horiz-adv-x="735" 
d="M412 445v-125h-210q9 -93 53 -152t125 -59q62 0 105 37t56 103h151q-23 -124 -103 -196t-212 -72q-149 0 -240.5 99.5t-91.5 281.5q0 184 93.5 283.5t240.5 99.5q77 0 138.5 -24.5t97 -64t55 -82.5t22.5 -86h-151q-6 24 -13.5 40t-24.5 39.5t-48.5 36.5t-75.5 13
q-56 0 -104.5 -40.5t-66.5 -131.5h204z" />
    <glyph glyph-name="afii10054" unicode="&#x405;" horiz-adv-x="673" 
d="M39 224h145q0 -18 6 -36t21 -38t48 -32t79 -12q152 0 152 94q0 17 -7 30t-16.5 21t-29.5 16t-35 12t-44 11l-146 36q-162 39 -162 196q0 27 6 54t25 58.5t48 55t81 39.5t119 16q79 0 137 -23.5t88 -61t43.5 -75.5t13.5 -75h-145q-2 18 -7 32t-18.5 34.5t-45 32
t-77.5 11.5q-51 0 -89 -21t-38 -66q0 -26 14.5 -43.5t28 -22.5t34.5 -10l177 -43q42 -11 72 -23.5t59 -34t44 -56t15 -81.5q0 -62 -24.5 -108.5t-57.5 -70.5t-76.5 -38t-72.5 -17.5t-55 -3.5q-75 0 -133 17t-90.5 42.5t-53 59.5t-27 63.5t-6.5 60.5z" />
    <glyph glyph-name="afii10055" unicode="&#x406;" horiz-adv-x="291" 
d="M221 726v-726h-151v726h151z" />
    <glyph glyph-name="afii10056" unicode="&#x407;" horiz-adv-x="291" 
d="M221 726v-726h-151v726h151zM111 924v-116h-127v116h127zM308 924v-116h-127v116h127z" />
    <glyph glyph-name="afii10057" unicode="&#x408;" horiz-adv-x="561" 
d="M340 726h151v-516q0 -229 -225 -229q-49 0 -87.5 9.5t-64 23.5t-43 39t-26.5 46.5t-13.5 56t-5.5 57t-1 60.5h141q0 -96 15.5 -133t71.5 -37q54 0 70.5 28t16.5 79v516z" />
    <glyph glyph-name="afii10058" unicode="&#x409;" horiz-adv-x="1133" 
d="M144 726h507v-275h189q108 0 178 -62t70 -167t-69 -163.5t-181 -58.5h-338v601h-205v-310q0 -150 -43.5 -230t-145.5 -80q-56 0 -92 11v116q18 -6 45 -6q50 0 67.5 43t17.5 162v419zM651 326v-201h171q53 0 84 29.5t31 75.5q0 47 -31 71.5t-84 24.5h-171z" />
    <glyph glyph-name="afii10059" unicode="&#x40a;" horiz-adv-x="1137" 
d="M221 726v-275h283v275h151v-275h189q108 0 178 -62t70 -167t-69 -163.5t-181 -58.5h-338v326h-283v-326h-151v726h151zM655 326v-201h171q53 0 84 29.5t31 75.5q0 47 -31 71.5t-84 24.5h-171z" />
    <glyph glyph-name="afii10060" unicode="&#x40b;" horiz-adv-x="826" 
d="M384 601v-159q54 9 149 9q108 0 178 -62t70 -167v-222h-151v230q0 47 -31 71.5t-84 24.5q-68 0 -131 -9v-317h-151v601h-219v125h589v-125h-219z" />
    <glyph glyph-name="afii10061" unicode="&#x40c;" horiz-adv-x="716" 
d="M221 726v-295l277 295h196l-296 -297l313 -429h-195l-224 319l-71 -73v-246h-151v726h151zM516 937l-148 -147h-102l95 147h155z" />
    <glyph glyph-name="afii10062" unicode="&#x40e;" horiz-adv-x="708" 
d="M9 726h171l196 -406l151 406h171l-267 -614q-34 -79 -73 -105t-98 -26q-57 0 -93 9v129q26 -12 59 -12q30 0 44.5 11t33.5 46zM273 937q3 -14 6 -23t12.5 -21.5t29.5 -19t50 -6.5t50 6.5t29.5 19t12.5 21.5t6 23h67q-1 -20 -8.5 -41t-24 -47t-51 -42.5t-81.5 -16.5
t-81.5 16.5t-51 42.5t-24 47t-8.5 41h67z" />
    <glyph glyph-name="afii10145" unicode="&#x40f;" horiz-adv-x="725" 
d="M221 726v-601h283v601h151v-726h-222v-154h-141v154h-222v726h151z" />
    <glyph glyph-name="afii10017" unicode="&#x410;" horiz-adv-x="730" 
d="M279 726h175l255 -726h-164l-47 150h-267l-51 -150h-159zM364 562l-93 -287h194l-99 287h-2z" />
    <glyph glyph-name="afii10018" unicode="&#x411;" horiz-adv-x="703" 
d="M70 726h534v-125h-383v-150h189q108 0 178 -62t70 -167t-69 -163.5t-181 -58.5h-338v726zM221 326v-201h171q53 0 84 29.5t31 75.5q0 47 -31 71.5t-84 24.5h-171z" />
    <glyph glyph-name="afii10019" unicode="&#x412;" horiz-adv-x="718" 
d="M70 0v726h358q63 0 109 -18t69 -47.5t33.5 -59t10.5 -60.5q0 -48 -17.5 -82t-33 -45.5t-37.5 -22.5q111 -41 111 -174q0 -24 -4 -47t-21.5 -55.5t-47 -56.5t-86 -41t-132.5 -17h-312zM221 320v-195h184q117 0 117 107q0 44 -31.5 66t-77.5 22h-192zM221 601v-159h177
q48 0 77.5 20t29.5 61q0 42 -28 60t-83 18h-173z" />
    <glyph glyph-name="afii10020" unicode="&#x413;" horiz-adv-x="613" 
d="M70 726h517v-125h-366v-601h-151v726z" />
    <glyph glyph-name="afii10021" unicode="&#x414;" horiz-adv-x="761" 
d="M173 726h491v-601h71v-278h-141v153h-427v-153h-141v278h65q49 75 65.5 158t16.5 227v216zM241 125h272v476h-198v-101q0 -145 -14.5 -222.5t-59.5 -152.5z" />
    <glyph glyph-name="afii10022" unicode="&#x415;" horiz-adv-x="667" 
d="M70 726h536v-125h-385v-150h353v-125h-353v-201h401v-125h-552v726z" />
    <glyph glyph-name="afii10024" unicode="&#x416;" horiz-adv-x="1039" 
d="M34 726h184l225 -299v299h151v-297l226 297h184l-247 -305l266 -421h-184l-186 321l-59 -77v-244h-151v244l-58 77l-186 -321h-184l266 421z" />
    <glyph glyph-name="afii10025" unicode="&#x417;" horiz-adv-x="673" 
d="M188 510h-142q7 98 79.5 166.5t203.5 68.5q137 0 207 -60t70 -132q0 -67 -33.5 -109.5t-91.5 -58.5q64 -11 108 -61t44 -130q0 -91 -74.5 -152t-219.5 -61q-304 0 -304 243h142q0 -55 34 -86.5t123 -31.5q68 0 108 28t40 76q0 53 -37.5 81.5t-95.5 28.5h-70v122h66
q54 0 85 25t31 69q0 41 -34 62.5t-95 21.5q-73 0 -106 -28t-38 -82z" />
    <glyph glyph-name="afii10026" unicode="&#x418;" horiz-adv-x="751" 
d="M221 726v-506h1l289 506h170v-726h-151v517h-2l-296 -517h-162v726h151z" />
    <glyph glyph-name="afii10027" unicode="&#x419;" horiz-adv-x="751" 
d="M221 726v-506h2l288 506h170v-726h-151v517h-2l-296 -517h-162v726h151zM277 937q3 -14 6 -23t12.5 -21.5t29.5 -19t50 -6.5t50 6.5t29.5 19t12.5 21.5t6 23h67q-1 -20 -8.5 -41t-24 -47t-51 -42.5t-81.5 -16.5t-81.5 16.5t-51 42.5t-24 47t-8.5 41h67z" />
    <glyph glyph-name="afii10028" unicode="&#x41a;" horiz-adv-x="716" 
d="M221 726v-295l277 295h196l-296 -297l313 -429h-195l-224 319l-71 -73v-246h-151v726h151z" />
    <glyph glyph-name="afii10029" unicode="&#x41b;" horiz-adv-x="721" 
d="M144 726h507v-726h-151v601h-205v-310q0 -150 -43.5 -230t-145.5 -80q-56 0 -92 11v116q18 -6 45 -6q50 0 67.5 43t17.5 162v419z" />
    <glyph glyph-name="afii10030" unicode="&#x41c;" horiz-adv-x="842" 
d="M70 726h221l131 -572h2l129 572h219v-726h-141v607h-1l-136 -607h-149l-132 607h-2v-607h-141v726z" />
    <glyph glyph-name="afii10031" unicode="&#x41d;" horiz-adv-x="725" 
d="M221 726v-275h283v275h151v-726h-151v326h-283v-326h-151v726h151z" />
    <glyph glyph-name="afii10032" unicode="&#x41e;" horiz-adv-x="786" 
d="M45 363q0 70 14.5 128t37.5 96.5t55 68.5t63.5 46t67 26.5t61 13.5t49.5 3t49.5 -3t61 -13.5t67 -26.5t63.5 -46t55 -68.5t37.5 -96.5t14.5 -128t-14.5 -128t-37.5 -96.5t-55 -68.5t-63.5 -46t-67 -26.5t-61 -13.5t-49.5 -3t-49.5 3t-61 13.5t-67 26.5t-63.5 46t-55 68.5
t-37.5 96.5t-14.5 128zM196 363q0 -72 18.5 -124.5t49.5 -79t63 -38.5t66 -12t66 12t63 38.5t49.5 79t18.5 124.5t-18.5 124.5t-49.5 79t-63 38.5t-66 12t-66 -12t-63 -38.5t-49.5 -79t-18.5 -124.5z" />
    <glyph glyph-name="afii10033" unicode="&#x41f;" horiz-adv-x="725" 
d="M70 726h585v-726h-151v601h-283v-601h-151v726z" />
    <glyph glyph-name="afii10034" unicode="&#x420;" horiz-adv-x="671" 
d="M221 262v-262h-151v726h332q105 0 164.5 -62t59.5 -170q0 -23 -5 -49.5t-20.5 -60t-39.5 -60t-67.5 -44.5t-98.5 -18h-174zM221 601v-214h141q113 0 113 113q0 53 -31.5 77t-101.5 24h-121z" />
    <glyph glyph-name="afii10035" unicode="&#x421;" horiz-adv-x="730" 
d="M691 488h-151q-5 19 -9.5 31t-16.5 33t-27.5 33t-43.5 22t-64 10q-31 0 -60 -12t-58 -39t-47 -80t-18 -126q0 -106 46.5 -178.5t136.5 -72.5q63 0 105.5 36.5t55.5 103.5h151q-23 -124 -103 -196t-212 -72q-149 0 -240 99t-91 282q0 184 93 283.5t240 99.5
q77 0 138.5 -24.5t97 -64t55 -82.5t22.5 -86z" />
    <glyph glyph-name="afii10036" unicode="&#x422;" horiz-adv-x="617" 
d="M384 601v-601h-151v601h-219v125h589v-125h-219z" />
    <glyph glyph-name="afii10037" unicode="&#x423;" horiz-adv-x="708" 
d="M9 726h171l196 -406l151 406h171l-267 -614q-34 -79 -73 -105t-98 -26q-57 0 -93 9v129q26 -12 59 -12q30 0 44.5 11t33.5 46z" />
    <glyph glyph-name="afii10038" unicode="&#x424;" horiz-adv-x="903" 
d="M527 726v-74q41 0 84 -8.5t88 -30t80 -53t57 -83t22 -114.5t-22.5 -114t-57 -82t-79.5 -52t-87.5 -29t-84.5 -8v-78h-151v78q-42 0 -84.5 8t-87.5 29t-79.5 52t-57 82t-22.5 114t22 114.5t57 83t80 53t88 30t84 8.5v74h151zM196 363q0 -48 16.5 -82t45 -50.5t57 -23.5
t61.5 -7v330q-32 0 -61 -7.5t-57.5 -24.5t-45 -51.5t-16.5 -83.5zM707 363q0 49 -16.5 83.5t-45 51.5t-57.5 24.5t-61 7.5v-330q33 0 61.5 7t57 23.5t45 50.5t16.5 82z" />
    <glyph glyph-name="afii10039" unicode="&#x425;" horiz-adv-x="673" 
d="M27 726h181l129 -235l132 235h175l-221 -349l236 -377h-185l-137 248l-146 -248h-177l234 371z" />
    <glyph glyph-name="afii10040" unicode="&#x426;" horiz-adv-x="748" 
d="M221 726v-601h283v601h151v-601h72v-279h-141v154h-516v726h151z" />
    <glyph glyph-name="afii10041" unicode="&#x427;" horiz-adv-x="705" 
d="M71 726h151v-213q0 -50 31 -73.5t81 -23.5q71 0 150 11v299h151v-726h-151v303q-70 -12 -191 -12q-97 0 -159.5 54.5t-62.5 170.5v210z" />
    <glyph glyph-name="afii10042" unicode="&#x428;" horiz-adv-x="973" 
d="M221 726v-601h190v601h151v-601h190v601h151v-726h-833v726h151z" />
    <glyph glyph-name="afii10043" unicode="&#x429;" horiz-adv-x="996" 
d="M221 726v-601h190v601h151v-601h190v601h151v-601h72v-279h-141v154h-764v726h151z" />
    <glyph glyph-name="afii10044" unicode="&#x42a;" horiz-adv-x="801" 
d="M7 726h312v-275h189q108 0 178 -62t70 -167t-69 -163.5t-181 -58.5h-338v601h-161v125zM319 326v-201h171q53 0 84 29.5t31 75.5q0 47 -31 71.5t-84 24.5h-171z" />
    <glyph glyph-name="afii10045" unicode="&#x42b;" horiz-adv-x="1006" 
d="M221 726v-275h189q108 0 178 -62t70 -167t-69 -163.5t-181 -58.5h-338v726h151zM221 326v-201h171q53 0 84 29.5t31 75.5q0 47 -31 71.5t-84 24.5h-171zM936 726v-726h-151v726h151z" />
    <glyph glyph-name="afii10046" unicode="&#x42c;" horiz-adv-x="703" 
d="M221 726v-275h189q108 0 178 -62t70 -167t-69 -163.5t-181 -58.5h-338v726h151zM221 326v-201h171q53 0 84 29.5t31 75.5q0 47 -31 71.5t-84 24.5h-171z" />
    <glyph glyph-name="afii10047" unicode="&#x42d;" horiz-adv-x="734" 
d="M321 445h204q-18 91 -66.5 131.5t-104.5 40.5q-44 0 -75.5 -13t-48.5 -36.5t-24.5 -39.5t-13.5 -40h-151q3 43 22.5 86t55 82.5t97 64t138.5 24.5q147 0 241 -99.5t94 -283.5q0 -182 -92 -281.5t-241 -99.5q-132 0 -212 72t-103 196h151q13 -66 56 -103t105 -37
q81 0 125 59t53 152h-210v125z" />
    <glyph glyph-name="afii10048" unicode="&#x42e;" horiz-adv-x="1008" 
d="M221 726v-275h104q10 74 40 130t65.5 86t79 48.5t75 24t59.5 5.5q32 0 66.5 -6.5t82 -30.5t83.5 -63t61.5 -112.5t25.5 -169.5t-25.5 -169.5t-61.5 -112.5t-83.5 -63t-82 -30.5t-66.5 -6.5q-31 0 -64 6t-79 28t-81.5 57t-62.5 101t-32 153h-104v-326h-151v726h151z
M476 364q0 -72 16.5 -125t43 -79.5t53.5 -38.5t55 -12t55 12t53.5 38.5t43 79t16.5 124.5t-16.5 124.5t-43 79t-53.5 38.5t-55 12t-54.5 -11.5t-53.5 -38t-43.5 -79t-16.5 -124.5z" />
    <glyph glyph-name="afii10049" unicode="&#x42f;" horiz-adv-x="715" 
d="M645 726v-726h-151v284h-112l-168 -284h-177l177 298q-70 23 -117 75t-47 132q0 90 63.5 155.5t164.5 65.5h367zM494 409v192h-187q-53 0 -79.5 -28t-26.5 -63q0 -46 30 -73.5t88 -27.5h175z" />
    <glyph glyph-name="afii10065" unicode="&#x430;" horiz-adv-x="567" 
d="M188 364h-136q6 59 28 98.5t58 58t71.5 25t82.5 6.5q34 0 66.5 -6t68 -21.5t57.5 -48.5t22 -80v-291q0 -72 31 -83v-22h-152q-10 32 -13 64q-22 -23 -39 -36.5t-54 -27.5t-81 -14q-67 0 -115 39.5t-48 117.5q0 87 69.5 132t181.5 54q82 7 82 47q0 63 -93 63
q-47 0 -65 -21.5t-22 -53.5zM368 262q-22 -18 -96 -29q-47 -8 -71.5 -24.5t-24.5 -56.5q0 -34 20 -49.5t46 -15.5q49 0 87.5 29.5t38.5 76.5v69z" />
    <glyph glyph-name="afii10066" unicode="&#x431;" horiz-adv-x="601" 
d="M143 405q25 50 70.5 81.5t100.5 31.5q109 0 180.5 -61t71.5 -188q0 -137 -72.5 -210t-193.5 -73q-124 0 -194.5 77.5t-70.5 222.5q0 83 10.5 145t36 116t73 89t117.5 52q20 5 50 11t43 9.5t29.5 9t23.5 12.5t10 17h107q-12 -66 -56 -100.5t-127 -47.5q-95 -15 -148.5 -58
t-60.5 -136zM305 405q-65 0 -95 -43.5t-30 -105.5t27.5 -106.5t92.5 -44.5q64 0 92.5 45t28.5 107q0 61 -27 104.5t-89 43.5z" />
    <glyph glyph-name="afii10067" unicode="&#x432;" 
d="M60 0v538h243q93 0 150.5 -36.5t57.5 -102.5q0 -45 -28 -75t-72 -41q116 -27 116 -136q0 -73 -51.5 -110t-145.5 -37h-270zM201 235v-138h104q42 0 63 15.5t21 53.5q0 69 -86 69h-102zM201 441v-121h92q80 0 80 61q0 60 -79 60h-93z" />
    <glyph glyph-name="afii10068" unicode="&#x433;" horiz-adv-x="442" 
d="M60 538h365v-113h-224v-425h-141v538z" />
    <glyph glyph-name="afii10069" unicode="&#x434;" horiz-adv-x="637" 
d="M133 538h415v-425h65v-258h-131v145h-334v-145h-131v258h59q57 71 57 279v146zM407 113v312h-143v-66q0 -176 -48 -246h191z" />
    <glyph glyph-name="afii10070" unicode="&#x435;" horiz-adv-x="580" 
d="M394 158h145q-26 -89 -91.5 -130.5t-144.5 -41.5q-268 0 -268 294q0 26 4 54t19.5 69t41.5 72.5t76 54t117 22.5q118 0 185 -67t67 -201v-53h-365q0 -132 123 -132q31 0 57 16t34 43zM180 323h220q-5 59 -37 86t-72 27q-98 0 -111 -113z" />
    <glyph glyph-name="afii10072" unicode="&#x436;" horiz-adv-x="817" 
d="M13 538h166l160 -198v198h141v-200l159 200h167l-187 -215l192 -323h-170l-120 220l-41 -44v-176h-141v175l-41 46l-119 -221h-170l191 324z" />
    <glyph glyph-name="afii10073" unicode="&#x437;" horiz-adv-x="559" 
d="M178 374h-136q37 178 239 178q96 0 159 -40t63 -101q0 -106 -120 -131q60 -8 100.5 -40t40.5 -95q0 -81 -66 -120t-174 -39q-110 0 -179.5 44t-73.5 142h137q0 -79 109 -79q106 0 106 68q0 35 -23 55t-67 20h-60v90h53q36 0 58.5 16t22.5 46q0 27 -23 42t-67 15
q-86 0 -99 -71z" />
    <glyph glyph-name="afii10074" unicode="&#x438;" horiz-adv-x="616" 
d="M201 538v-341l204 341h151v-538h-141v342l-204 -342h-151v538h141z" />
    <glyph glyph-name="afii10075" unicode="&#x439;" horiz-adv-x="616" 
d="M201 538v-341l204 341h151v-538h-141v342l-204 -342h-151v538h141zM433 758h66q-1 -17 -5.5 -33.5t-16.5 -38.5t-30.5 -37.5t-51.5 -27t-76 -11.5q-47 0 -81 16.5t-49.5 43t-22.5 47.5t-8 41h67q3 -14 6.5 -23t13 -22t30 -19.5t50.5 -6.5q29 0 47.5 3.5t37 20t23.5 47.5z
" />
    <glyph glyph-name="afii10076" unicode="&#x43a;" 
d="M201 538v-204l178 204h173l-189 -208l194 -330h-169l-128 231l-59 -61v-170h-141v538h141z" />
    <glyph glyph-name="afii10077" unicode="&#x43b;" horiz-adv-x="614" 
d="M121 538h433v-538h-141v425h-151v-166q0 -147 -41 -209t-120 -62q-54 0 -86 12v105q6 -4 42 -4q23 0 35.5 11.5t20.5 52.5t8 121v252z" />
    <glyph glyph-name="afii10078" unicode="&#x43c;" horiz-adv-x="748" 
d="M255 538l117 -366h4l116 366h196v-538h-135v330l4 63h-4l-127 -393h-104l-127 393h-4q4 -34 4 -63v-330h-135v538h195z" />
    <glyph glyph-name="afii10079" unicode="&#x43d;" horiz-adv-x="603" 
d="M201 538v-201h201v201h141v-538h-141v224h-201v-224h-141v538h141z" />
    <glyph glyph-name="afii10080" unicode="&#x43e;" horiz-adv-x="619" 
d="M310 552q116 0 195 -72t79 -210t-79 -211t-195 -73t-195.5 72.5t-79.5 210.5t79.5 210.5t195.5 72.5zM310 433q-39 0 -66 -15t-40 -41t-18.5 -52t-5.5 -55q0 -30 5.5 -55.5t18.5 -52t40 -42t66 -15.5t66 15.5t40 41.5t18 51.5t5 55.5t-5 55.5t-18 51.5t-40 41.5t-66 15.5
z" />
    <glyph glyph-name="afii10081" unicode="&#x43f;" horiz-adv-x="603" 
d="M60 538h483v-538h-141v425h-201v-425h-141v538z" />
    <glyph glyph-name="afii10082" unicode="&#x440;" horiz-adv-x="618" 
d="M317 430q-63 0 -92 -47t-29 -118q0 -37 9.5 -71.5t37.5 -63t70 -28.5q63 0 94 44.5t31 110.5q0 173 -121 173zM196 538v-78h2q16 26 32 43.5t50 33t78 15.5q95 0 160 -73t65 -206q0 -57 -13.5 -107t-40 -91t-71.5 -65t-103 -24q-102 0 -151 83l-3 1v-286h-141v754h136z
" />
    <glyph glyph-name="afii10083" unicode="&#x441;" horiz-adv-x="564" 
d="M386 196h142q-2 -20 -8.5 -43t-23.5 -54t-42.5 -55t-70 -41t-100.5 -17q-58 0 -103 17.5t-72 44t-44 63.5t-23 71.5t-6 71.5q0 138 63 218t194 80q36 0 72 -9.5t73 -30.5t62 -64t30 -102h-143q-15 87 -94 87q-60 0 -86 -47t-26 -109q0 -20 1 -33.5t3.5 -37t10 -39.5
t18.5 -32t30.5 -24.5t45.5 -8.5q47 0 72 33t25 61z" />
    <glyph glyph-name="afii10084" unicode="&#x442;" horiz-adv-x="495" 
d="M318 0h-141v425h-160v113h461v-113h-160v-425z" />
    <glyph glyph-name="afii10085" unicode="&#x443;" 
d="M10 538h158l115 -396h2l110 396h150l-185 -528q-21 -60 -33.5 -91.5t-30 -62.5t-36 -44t-45 -20.5t-63.5 -7.5q-24 0 -64 2v113q12 -2 27 -2q44 0 64 14.5t29 66.5z" />
    <glyph glyph-name="afii10086" unicode="&#x444;" horiz-adv-x="901" 
d="M380 726h141v-266h1q17 27 31 44t44.5 32.5t69.5 15.5q86 0 142.5 -72t56.5 -205q0 -58 -11 -108t-34.5 -91.5t-63.5 -65.5t-93 -24q-91 0 -140 83h-3v-285h-141v285h-2q-49 -83 -140 -83q-70 0 -117.5 43t-66.5 105.5t-19 140.5q0 133 57 205t143 72q39 0 69 -16
t44 -32.5t31 -43.5h1v266zM516 259q0 -154 112 -154q36 0 58 27.5t28.5 60t6.5 71.5q0 169 -94 169q-111 0 -111 -174zM386 259q0 174 -107 174q-51 0 -75 -49t-24 -120q0 -38 7 -71t29 -60.5t58 -27.5q112 0 112 154z" />
    <glyph glyph-name="afii10087" unicode="&#x445;" 
d="M22 538h172l91 -157l89 157h167l-177 -264l183 -274h-175l-93 162l-93 -162h-171l183 274z" />
    <glyph glyph-name="afii10088" unicode="&#x446;" horiz-adv-x="624" 
d="M201 538v-425h202v425h141v-425h64v-258h-131v145h-417v538h141z" />
    <glyph glyph-name="afii10089" unicode="&#x447;" horiz-adv-x="595" 
d="M60 538h141v-157q0 -73 92 -73q72 0 101 8v222h141v-538h-141v206q-77 -17 -152 -17q-85 0 -133.5 45t-48.5 143v161z" />
    <glyph glyph-name="afii10090" unicode="&#x448;" horiz-adv-x="889" 
d="M201 538v-425h173v425h141v-425h173v425h141v-538h-769v538h141z" />
    <glyph glyph-name="afii10091" unicode="&#x449;" horiz-adv-x="908" 
d="M201 538v-425h173v425h141v-425h173v425h141v-425h65v-258h-131v145h-703v538h141z" />
    <glyph glyph-name="afii10092" unicode="&#x44a;" horiz-adv-x="595" 
d="M0 538h245v-201h100q99 0 158 -47.5t59 -130.5q0 -78 -60 -118.5t-156 -40.5h-242v425h-104v113zM245 240v-143h96q38 0 59 17t21 48q0 36 -21 57t-59 21h-96z" />
    <glyph glyph-name="afii10093" unicode="&#x44b;" horiz-adv-x="814" 
d="M201 538v-201h100q99 0 158 -47.5t59 -130.5q0 -78 -60 -118.5t-156 -40.5h-242v538h141zM201 240v-143h96q38 0 59 17t21 48q0 36 -21 57t-59 21h-96zM754 538v-538h-141v538h141z" />
    <glyph glyph-name="afii10094" unicode="&#x44c;" horiz-adv-x="563" 
d="M211 538v-201h100q99 0 158 -47.5t59 -130.5q0 -78 -60 -118.5t-156 -40.5h-242v538h141zM211 240v-143h96q38 0 59 17t21 48q0 36 -21 57t-59 21h-96z" />
    <glyph glyph-name="afii10095" unicode="&#x44d;" 
d="M35 196h141q0 -27 26.5 -60.5t73.5 -33.5q99 0 106 138h-142v92h142q-11 54 -33.5 79t-72.5 25q-40 0 -64 -22.5t-32 -52.5h-140q10 52 36 91t60.5 59.5t69.5 30.5t70 10q125 0 188 -81t63 -217q0 -37 -6.5 -71.5t-24 -71t-44.5 -63.5t-71.5 -44.5t-101.5 -17.5
q-56 0 -100.5 17t-69.5 41t-42.5 55t-23.5 54t-8 43z" />
    <glyph glyph-name="afii10096" unicode="&#x44e;" horiz-adv-x="836" 
d="M201 538v-201h98q16 101 86.5 158t162.5 57q106 0 179.5 -73t73.5 -210t-73.5 -210t-179.5 -73q-96 0 -166 59t-83 179h-98v-224h-141v538h141zM548 433q-59 0 -84.5 -49.5t-25.5 -114.5t25.5 -114.5t84.5 -49.5q41 0 67.5 28t35.5 62.5t9 73.5q0 28 -5.5 55t-17.5 52.5
t-35 41t-54 15.5z" />
    <glyph glyph-name="afii10097" unicode="&#x44f;" horiz-adv-x="561" 
d="M501 538v-538h-141v212h-61l-108 -212h-164l131 225q-46 11 -84.5 48t-38.5 103q0 80 54.5 121t158.5 41h253zM360 305v136h-104q-36 0 -59.5 -19t-23.5 -49q0 -68 83 -68h104z" />
    <glyph glyph-name="afii10071" unicode="&#x451;" horiz-adv-x="580" 
d="M394 158h145q-26 -89 -91.5 -130.5t-144.5 -41.5q-268 0 -268 294q0 26 4 54t19.5 69t41.5 72.5t76 54t117 22.5q35 0 67 -7t67 -27t60 -51.5t41.5 -85.5t16.5 -124v-26h-365q0 -132 123 -132q31 0 57 16t34 43zM180 323h220q-5 59 -37 86t-72 27q-98 0 -111 -113z
M258 736v-116h-127v116h127zM455 736v-116h-127v116h127z" />
    <glyph glyph-name="afii10099" unicode="&#x452;" horiz-adv-x="605" 
d="M60 726h141v-53h161v-87h-161v-118h2q14 35 57.5 59.5t98.5 24.5q82 0 134 -47t52 -133q0 -102 -3 -168t-12 -130.5t-25.5 -102.5t-45 -70.5t-69.5 -49.5t-99 -25v119q70 19 91.5 100t21.5 282q0 20 -2 34t-10 33t-28 29t-52 10q-49 0 -80 -32.5t-31 -92.5v-308h-141v586
h-60v87h60v53z" />
    <glyph glyph-name="afii10100" unicode="&#x453;" horiz-adv-x="442" 
d="M60 538h365v-113h-224v-425h-141v538zM365 733l-114 -113h-82l74 113h122z" />
    <glyph glyph-name="afii10101" unicode="&#x454;" 
d="M527 196q-2 -20 -8.5 -43t-23.5 -54t-42.5 -55t-70 -41t-100.5 -17q-58 0 -103 17.5t-71.5 44t-43.5 63.5t-23 71.5t-6 71.5q0 138 62.5 218t193.5 80q36 0 70.5 -9t69 -29t59 -59.5t32.5 -93.5h-140q-19 72 -91 72q-50 0 -74 -27.5t-33 -76.5h132v-92h-133
q7 -132 104 -132q48 0 73.5 32t25.5 59h141z" />
    <glyph glyph-name="afii10102" unicode="&#x455;" horiz-adv-x="563" 
d="M512 374h-138q-3 16 -7 26t-13.5 21.5t-28.5 17.5t-46 6q-87 0 -87 -53q0 -23 34.5 -36t84 -22t99 -23.5t84 -49.5t34.5 -90q0 -45 -16.5 -79.5t-41.5 -54t-58.5 -31.5t-61.5 -16t-57 -4q-49 0 -92.5 9.5t-82 29.5t-61 58t-22.5 89h145q0 -79 117 -79q49 0 69.5 18
t20.5 38q0 21 -24.5 34t-61.5 19t-80.5 17t-80.5 25.5t-61.5 47.5t-24.5 80q0 32 11 62t34 57.5t67.5 44t104.5 16.5q228 0 241 -178z" />
    <glyph glyph-name="afii10103" unicode="&#x456;" horiz-adv-x="261" 
d="M201 538v-538h-141v538h141zM201 732v-131h-141v131h141z" />
    <glyph glyph-name="afii10104" unicode="&#x457;" horiz-adv-x="261" 
d="M201 538v-538h-141v538h141zM96 736v-116h-127v116h127zM293 736v-116h-127v116h127z" />
    <glyph glyph-name="afii10105" unicode="&#x458;" horiz-adv-x="261" 
d="M60 538h141v-594q0 -52 -11.5 -84t-39.5 -48.5t-63 -22t-94 -5.5v113q41 0 54 9t13 41v591zM201 732v-131h-141v131h141z" />
    <glyph glyph-name="afii10106" unicode="&#x459;" horiz-adv-x="906" 
d="M121 538h433v-201h100q99 0 158 -47.5t59 -130.5q0 -78 -60 -118.5t-156 -40.5h-242v425h-151v-166q0 -147 -41 -209t-120 -62q-54 0 -86 12v105q6 -4 42 -4q23 0 35.5 11.5t20.5 52.5t8 121v252zM554 240v-143h96q38 0 59 17t21 48q0 36 -21 57t-59 21h-96z" />
    <glyph glyph-name="afii10107" unicode="&#x45a;" horiz-adv-x="895" 
d="M201 538v-201h201v201h141v-201h100q99 0 158 -47.5t59 -130.5q0 -78 -60 -118.5t-156 -40.5h-242v240h-201v-240h-141v538h141zM543 240v-143h96q38 0 59 17t21 48q0 36 -21 57t-59 21h-96z" />
    <glyph glyph-name="afii10108" unicode="&#x45b;" horiz-adv-x="612" 
d="M67 726h141v-53h161v-87h-161v-118h2q14 35 57 59.5t99 24.5q82 0 134 -47t52 -133v-372h-141v327q0 20 -2 34t-10 33t-28 29t-52 10q-49 0 -80 -32.5t-31 -92.5v-308h-141v586h-60v87h60v53z" />
    <glyph glyph-name="afii10109" unicode="&#x45c;" 
d="M201 538v-204l178 204h173l-189 -208l194 -330h-169l-128 231l-59 -61v-170h-141v538h141zM425 733l-114 -113h-82l74 113h122z" />
    <glyph glyph-name="afii10110" unicode="&#x45e;" 
d="M10 538h158l115 -396h2l110 396h150l-185 -528q-21 -60 -33.5 -91.5t-30 -62.5t-36 -44t-45 -20.5t-63.5 -7.5q-24 0 -64 2v113q12 -2 27 -2q44 0 64 14.5t29 66.5zM392 758h66q-1 -17 -5.5 -33.5t-16.5 -38.5t-30.5 -37.5t-51.5 -27t-76 -11.5q-47 0 -81 16.5t-49.5 43
t-22.5 47.5t-8 41h67q3 -14 6.5 -23t13 -22t30 -19.5t50.5 -6.5q29 0 47.5 3.5t37 20t23.5 47.5z" />
    <glyph glyph-name="afii10193" unicode="&#x45f;" horiz-adv-x="604" 
d="M201 538v-425h202v425h141v-538h-177v-145h-130v145h-177v538h141z" />
    <glyph glyph-name="afii10050" unicode="&#x490;" horiz-adv-x="613" 
d="M70 726h384v127h133v-252h-366v-601h-151v726z" />
    <glyph glyph-name="afii10098" unicode="&#x491;" horiz-adv-x="442" 
d="M60 538h268v95h97v-208h-224v-425h-141v538z" />
    <glyph glyph-name="endash" unicode="&#x2013;" 
d="M562 312v-113h-562v113h562z" />
    <glyph glyph-name="emdash" unicode="&#x2014;" horiz-adv-x="1010" 
d="M1010 312v-113h-1010v113h1010z" />
    <glyph glyph-name="quoteleft" unicode="&#x2018;" horiz-adv-x="280" 
d="M210 587v-128h-141v103q0 143 139 172v-51q-45 -14 -59 -37t-16 -59h77z" />
    <glyph glyph-name="quoteright" unicode="&#x2019;" horiz-adv-x="280" 
d="M69 597v128h141v-102q0 -144 -138 -173v51q45 14 59 37t16 59h-78z" />
    <glyph glyph-name="quotesinglbase" unicode="&#x201a;" horiz-adv-x="280" 
d="M64 0v147h151v-127q0 -87 -39 -129.5t-111 -60.5h-1v54q25 8 39.5 17t29 34t16.5 65h-85z" />
    <glyph glyph-name="quotedblleft" unicode="&#x201c;" horiz-adv-x="504" 
d="M205 587v-128h-141v103q0 143 139 172v-51q-45 -14 -59 -37t-16 -59h77zM439 587v-128h-141v103q0 143 139 172v-51q-45 -14 -59 -37t-16 -59h77z" />
    <glyph glyph-name="quotedblright" unicode="&#x201d;" horiz-adv-x="504" 
d="M64 597v128h141v-102q0 -144 -138 -173v51q45 14 59 37t16 59h-78zM298 597v128h141v-102q0 -144 -138 -173v51q45 14 59 37t16 59h-78z" />
    <glyph glyph-name="quotedblbase" unicode="&#x201e;" horiz-adv-x="504" 
d="M54 0v147h151v-127q0 -87 -39 -129.5t-111 -60.5h-1v54q25 8 39.5 17t29 34t16.5 65h-85zM288 0v147h151v-127q0 -87 -39 -129.5t-111 -60.5h-1v54q25 8 39.5 17t29 34t16.5 65h-85z" />
    <glyph glyph-name="dagger" unicode="&#x2020;" 
d="M525 504v-113h-177v-563h-135v563h-176v113h176v221h135v-221h177z" />
    <glyph glyph-name="bullet" unicode="&#x2022;" horiz-adv-x="354" 
d="M10 364q0 69 49 117t119 48q69 0 117 -47.5t48 -117.5t-48.5 -119t-117.5 -49q-70 0 -118.5 48.5t-48.5 119.5z" />
    <glyph glyph-name="ellipsis" unicode="&#x2026;" horiz-adv-x="1010" 
d="M244 147v-147h-151v147h151zM580 147v-147h-151v147h151zM916 147v-147h-151v147h151z" />
    <glyph glyph-name="perthousand" unicode="&#x2030;" horiz-adv-x="1311" 
d="M502 171q0 76 54 130t130 54q75 0 129 -54t54 -130t-54 -130t-129 -54q-76 0 -130 53.5t-54 130.5zM606 171q0 -34 23.5 -57t56.5 -23q32 0 55.5 23.5t23.5 56.5t-23.5 56.5t-55.5 23.5q-33 0 -56.5 -23.5t-23.5 -56.5zM28 533q0 76 54 130t130 54q75 0 129 -54t54 -130
t-54 -130t-129 -54q-76 0 -130 53.5t-54 130.5zM132 533q0 -34 23.5 -57t56.5 -23q32 0 55.5 23.5t23.5 56.5t-23.5 56.5t-55.5 23.5q-33 0 -56.5 -23.5t-23.5 -56.5zM684 717l-402 -737h-74l402 737h74zM920 171q0 76 54 130t130 54q75 0 129 -54t54 -130t-54 -130
t-129 -54q-76 0 -130 53.5t-54 130.5zM1024 171q0 -34 23.5 -57t56.5 -23q32 0 55.5 23.5t23.5 56.5t-23.5 56.5t-55.5 23.5q-33 0 -56.5 -23.5t-23.5 -56.5z" />
    <glyph glyph-name="guilsinglleft" unicode="&#x2039;" horiz-adv-x="337" 
d="M253 489v-117l-101 -89l101 -89v-117l-169 145v122z" />
    <glyph glyph-name="guilsinglright" unicode="&#x203a;" horiz-adv-x="337" 
d="M185 283l-101 89v117l169 -145v-122l-169 -145v117z" />
    <glyph glyph-name="Euro" unicode="&#x20ac;" 
d="M518 680v-129q-46 46 -138 46q-126 0 -148 -124h253l-32 -94h-233q-1 -8 -1 -27q0 -6 0.5 -17t0.5 -15h212l-32 -95h-167q21 -124 148 -124q89 0 137 44v-129q-47 -35 -157 -35q-224 0 -262 244h-81l32 95h39q-1 8 -1 31q0 20 1 28h-71l32 94h48q42 244 263 244
q104 0 157 -37z" />
    <glyph glyph-name="afii61352" unicode="&#x2116;" horiz-adv-x="1181" 
d="M519 222v504h141v-726h-150l-297 519h-2v-519h-141v726h159l288 -504h2zM1121 334q0 -67 -45 -118.5t-134 -51.5q-88 0 -133 51.5t-45 118.5t45 118.5t133 51.5q89 0 134 -51.5t45 -118.5zM1022 334q0 41 -21.5 69t-58.5 28t-58 -28t-21 -69q0 -42 21 -69.5t58 -27.5
q38 0 59 27.5t21 69.5zM791 119h303v-81h-303v81z" />
    <glyph glyph-name="trademark" unicode="&#x2122;" horiz-adv-x="1010" 
d="M622 725l95 -252l94 252h154v-416h-107v284h-5l-96 -284h-81l-99 284h-2v-284h-107v416h154zM389 725v-86h-116v-330h-113v330h-116v86h345z" />
    </font>
</defs>
</svg>
